<svg width="57" height="48" viewBox="0 0 57 48" fill="none" xmlns="http://www.w3.org/2000/svg">
<g clip-path="url(#clip0_199_37)">
<path d="M3.27026 0H53.7297C54.5923 0.00994153 55.4167 0.415209 56.0245 1.12801C56.6323 1.84081 56.9744 2.80375 56.9768 3.80824V44.1918C56.9816 44.9623 56.7842 45.7162 56.4109 46.3525C56.3438 46.5563 56.2393 46.7406 56.1047 46.8926C56.0143 46.9933 55.911 47.0771 55.7986 47.1411C55.2133 47.7162 54.4723 48.0319 53.7065 48.0324H3.27026C2.41171 48.0226 1.59071 47.621 0.98359 46.914C0.37647 46.207 0.0316526 45.251 0.0231934 44.2512V3.80824C0.0255912 2.80375 0.367731 1.84081 0.975498 1.12801C1.58327 0.415209 2.40772 0.00994153 3.27026 0ZM3.1311 42.5874L20.1921 21.9419L3.1311 5.15327V42.5874ZM22.762 24.5186L4.53198 45.0776H52.3103L34.8921 24.5186L29.7896 29.4936C29.5647 29.711 29.2816 29.8301 28.9894 29.8301C28.6971 29.8301 28.4141 29.711 28.1892 29.4936L22.762 24.5186ZM37.4202 21.9041L53.8689 42.7549V4.96961L37.4202 21.9041ZM4.73608 2.92235L28.9407 25.7664L52.0784 2.92235H4.73608Z" fill="#CFA55B"/>
</g>
<defs>
<clipPath id="clip0_199_37">
<rect width="57" height="48" rx="9" fill="white"/>
</clipPath>
</defs>
</svg>
