<svg width="49" height="48" viewBox="0 0 49 48" fill="none" xmlns="http://www.w3.org/2000/svg">
<path d="M45.0412 0H3.59113C1.60556 0 0 1.54688 0 3.45938V44.5312C0 46.4437 1.60556 48 3.59113 48H45.0412C47.0267 48 48.6418 46.4438 48.6418 44.5406V3.45938C48.6418 1.54688 47.0267 0 45.0412 0ZM14.431 40.9031H7.21077V17.9906H14.431V40.9031ZM10.8209 14.8688C8.50282 14.8688 6.63125 13.0219 6.63125 10.7437C6.63125 8.46562 8.50282 6.61875 10.8209 6.61875C13.1295 6.61875 15.0011 8.46562 15.0011 10.7437C15.0011 13.0125 13.1295 14.8688 10.8209 14.8688ZM41.45 40.9031H34.2393V29.7656C34.2393 27.1125 34.1918 23.6906 30.4866 23.6906C26.734 23.6906 26.164 26.5875 26.164 29.5781V40.9031H18.9627V17.9906H25.879V21.1219H25.974C26.9335 19.3219 29.2896 17.4188 32.7952 17.4188C40.101 17.4188 41.45 22.1625 41.45 28.3313V40.9031V40.9031Z" fill="#CFA55B"/>
</svg>
