<svg width="48" height="48" viewBox="0 0 48 48" fill="none" xmlns="http://www.w3.org/2000/svg">
<path d="M40.6464 40.5888C36.3984 44.8944 30.5376 47.52 24 47.52C17.5296 47.52 11.6688 44.8944 7.35358 40.5888C3.10558 36.3504 0.47998 30.4944 0.47998 24.0336C0.47998 17.5056 3.10558 11.6496 7.35358 7.41118C11.6688 3.10558 17.5296 0.47998 24 0.47998C30.5376 0.47998 36.3984 3.10558 40.6464 7.41118C44.8944 11.6496 47.52 17.5056 47.52 24.0336C47.52 30.4944 44.8944 36.3504 40.6464 40.5888ZM38.76 9.29758C34.9872 5.52478 29.7936 3.23998 24 3.23998C18.2736 3.23998 13.08 5.52958 9.30718 9.29758C5.53438 13.0656 3.17278 18.2496 3.17278 24.0336C3.17278 29.7552 5.52958 34.9344 9.30718 38.7024C13.08 42.4704 18.2736 44.76 24 44.76C29.7936 44.76 34.9872 42.4704 38.76 38.7024C42.4656 34.9344 44.8272 29.7504 44.8272 24.0336C44.8224 18.2448 42.4656 13.0608 38.76 9.29758ZM33.4368 37.2912L31.2144 38.3664L27.576 30.696L27.4416 30.4272C27.4416 30.4272 29.1264 29.688 30 29.4864C30.8064 29.2176 31.0128 29.8896 31.0128 29.8896C31.0128 29.8896 33.2352 34.5312 33.7776 35.6736C34.3104 36.816 33.4368 37.2912 33.4368 37.2912ZM17.3952 28.4736C10.4064 15.0576 16.6752 10.7376 16.6512 10.512C16.7088 10.6704 17.2704 11.9376 20.2944 18.312C19.4832 18.312 19.4832 18.984 19.9584 21.0048C20.3616 23.0928 23.1936 28.4736 24.4752 30.1584C25.6896 31.7712 26.6304 31.032 26.6304 31.032L30.0672 38.7696C30.0672 38.7696 24.336 41.8656 17.3952 28.4736ZM16.656 10.5072C16.6416 10.4832 16.6416 10.4832 16.656 10.5072V10.5072ZM23.5968 16.7664L21.3744 17.8416L17.7312 10.1712L17.5968 9.96958C17.5968 9.96958 19.2816 9.23038 20.1552 8.96158C20.9664 8.75998 21.168 9.36478 21.168 9.36478C21.168 9.36478 23.3904 14.0736 23.9328 15.2208C24.4704 16.3584 23.5968 16.7664 23.5968 16.7664Z" fill="#CFA55B"/>
</svg>
