<svg width="48" height="48" viewBox="0 0 48 48" fill="none" xmlns="http://www.w3.org/2000/svg">
<path d="M42.5871 0.146492C42.159 0.190431 41.6662 0.307603 41.2799 0.456213C41.1441 0.508455 39.1123 1.31196 36.7673 2.23897L32.501 3.92537L32.0583 3.73496C29.5044 2.64273 26.8837 2.03383 24.096 1.88737C23.4945 1.85602 21.8407 1.87487 21.2873 1.91881C19.2179 2.08617 17.4283 2.45233 15.5197 3.10097C11.1637 4.58241 7.30876 7.40507 4.51475 11.1609C2.17386 14.3078 0.66401 18.0742 0.175499 21.9807C0.0418032 23.0687 0 23.7404 0 24.8849C0 26.0086 0.0543721 26.8853 0.188068 27.8771C0.651534 31.3714 1.86485 34.6377 3.77346 37.5377C3.91125 37.7491 4.03033 37.9206 4.03657 37.9206C4.04281 37.9206 4.10128 37.8432 4.16189 37.7469C5.35211 35.9474 6.18743 34.1542 6.72827 32.2293C6.92248 31.545 6.98719 31.2208 7.1814 29.9841C7.40699 28.5425 8.02715 27.0862 8.92093 25.9039C9.43253 25.2239 10.1029 24.5502 10.7523 24.0626C13.2143 22.2171 16.4113 21.7045 19.3453 22.6858C20.8969 23.2068 22.2667 24.1212 23.3609 25.3662C24.5741 26.7493 25.353 28.4818 25.5869 30.3252C25.787 31.8831 25.5887 33.4664 25.0106 34.9264C24.5867 35.9998 23.9936 36.9476 23.1917 37.8285C22.4442 38.6509 21.4209 39.4083 20.3998 39.9C19.4414 40.3583 18.6729 40.5822 17.3823 40.7768C16.639 40.8876 16.0375 41.0236 15.3151 41.2455C13.799 41.7079 12.3748 42.3397 11.0342 43.1474C10.6646 43.3692 9.94832 43.8338 9.94832 43.8505C9.94832 43.8672 10.7753 44.4028 11.1386 44.6205C13.8909 46.2735 16.9292 47.3238 20.1074 47.7214C21.1516 47.8532 21.7864 47.8909 22.9683 47.8909C24.1502 47.8909 24.7851 47.8532 25.8292 47.7214C29.5295 47.259 33.0816 45.8927 36.1011 43.773C39.3901 41.463 42.0171 38.36 43.7168 34.7757C45.3581 31.317 46.1204 27.4314 45.9053 23.6191C45.7508 20.855 45.1222 18.1934 44.0259 15.6658L43.8797 15.331L45.6213 10.9057C46.5798 8.47211 47.3942 6.39232 47.4297 6.28354C47.5229 5.99512 47.5899 5.69888 47.6301 5.39841C47.6656 5.11388 47.6719 4.57401 47.6406 4.31662C47.3482 1.93336 45.2997 0.108803 42.9484 0.136043C42.7896 0.136043 42.6268 0.142294 42.5871 0.146492V0.146492ZM43.3368 2.44393C44.193 2.60719 44.903 3.1993 45.2287 4.02164C45.3435 4.31243 45.3895 4.56561 45.3916 4.90248C45.3916 5.23935 45.354 5.46119 45.2412 5.77716C45.1639 5.99266 35.7065 29.9548 35.6125 30.1683C35.5477 30.321 35.435 30.5031 35.2826 30.6977C34.7918 31.3337 33.9314 31.6915 33.092 31.6058C32.2797 31.5241 31.601 31.0973 31.1938 30.4152C31.1479 30.3378 30.5986 29.1848 29.9763 27.8562C29.352 26.5275 28.7757 25.3118 28.6942 25.1569C27.4851 22.8428 25.66 20.901 23.436 19.564C22.8702 19.2229 22.559 19.0702 19.9634 17.8461C18.6331 17.2184 17.4784 16.6639 17.3949 16.6116C16.4719 16.0362 16.0396 14.9 16.3299 13.8141C16.3905 13.5881 16.5429 13.2553 16.6744 13.0608C16.8895 12.7427 17.2884 12.4017 17.6371 12.2363C17.8188 12.1506 41.9482 2.5862 42.1549 2.51716C42.2342 2.49207 42.3657 2.45858 42.4472 2.44393C42.6602 2.40419 43.13 2.40624 43.3368 2.44393V2.44393Z" fill="#CFA55B"/>
<path d="M34.0713 9.31927C32.1668 9.50342 30.6571 10.989 30.4316 12.9035C30.4002 13.163 30.419 13.8263 30.4608 14.0564C30.7051 15.3579 31.4944 16.4208 32.6429 16.9962C33.6014 17.4755 34.7124 17.557 35.7252 17.2243C36.6816 16.9105 37.5001 16.2368 37.9992 15.3516C38.6424 14.2113 38.6842 12.7613 38.1036 11.577C37.3581 10.0578 35.7503 9.15601 34.0713 9.31927ZM34.9129 11.5979C35.7064 11.8051 36.2785 12.5436 36.2807 13.3576C36.2807 14.2867 35.5769 15.0713 34.6476 15.1738C34.134 15.2303 33.6098 15.0545 33.2256 14.6946C32.8476 14.341 32.6471 13.8828 32.6471 13.3722C32.6471 12.8847 32.8079 12.4704 33.1358 12.1273C33.4365 11.8093 33.7873 11.6209 34.2029 11.5561C34.3845 11.5288 34.7207 11.5477 34.9129 11.5979V11.5979Z" fill="#CFA55B"/>
<path d="M12.6212 28.1171C11.9488 28.2239 11.3494 28.5691 10.8524 29.1319C10.3262 29.7324 9.95874 30.3686 9.71853 31.0967C9.52646 31.6784 9.44295 32.191 9.44295 32.8145C9.4408 33.2665 9.47004 33.5679 9.55355 33.9759L9.61416 34.2688L7.23147 36.6562L4.84888 39.0437L5.043 39.2822C5.37295 39.6902 5.71753 40.092 6.01611 40.4184L6.131 40.5418L8.32152 38.3469L10.512 36.152L10.5476 36.2043C10.7481 36.4909 11.2074 36.9638 11.5248 37.2128L11.7232 37.3656L9.5327 39.5625L7.34217 41.7596L7.45706 41.8642C7.92267 42.2848 8.7079 42.9481 8.8185 43.0129C8.83945 43.0254 9.51184 42.3664 11.2304 40.6443L13.6131 38.259L13.8302 38.3071C14.2187 38.3971 14.5382 38.4285 15.0226 38.4285C15.6929 38.4306 16.1669 38.3531 16.7872 38.1481C17.5619 37.8907 18.3136 37.4262 18.8879 36.8529C19.3369 36.403 19.5854 35.9616 19.7107 35.3882C19.7566 35.1769 19.7754 34.6454 19.744 34.4236C19.5792 33.2665 18.7605 32.3563 17.6266 32.0697C17.3405 31.9965 16.783 31.9755 16.4906 32.0278C16.1997 32.0783 15.9186 32.1743 15.6575 32.3124L15.4256 32.4317L15.5175 32.2726C15.8558 31.6784 15.9581 30.8917 15.7848 30.2117C15.505 29.1048 14.6049 28.2887 13.4774 28.1171C13.2351 28.0794 12.8593 28.0794 12.6212 28.1171V28.1171ZM13.3458 30.0944C13.5671 30.1718 13.7321 30.3246 13.8407 30.5548C13.8991 30.6782 13.9055 30.7096 13.9055 30.9001C13.9055 31.0925 13.8991 31.1218 13.8386 31.2494C13.6528 31.6428 12.9094 32.1722 12.2348 32.3919C12.0574 32.4505 11.7254 32.5238 11.5102 32.553C11.4121 32.5655 11.41 32.5655 11.41 32.507C11.41 32.2203 11.5896 31.5905 11.7775 31.2201C11.9968 30.7871 12.4082 30.2765 12.6421 30.1489C12.8551 30.0338 13.1098 30.0129 13.3458 30.0944V30.0944ZM14.4024 33.4674C14.3941 33.482 14.323 33.5887 14.2479 33.7039C13.8198 34.3483 13.5463 35.0429 13.4147 35.8214C13.3917 35.9552 13.3687 36.0703 13.3625 36.0745C13.3479 36.0892 13.0117 35.8841 12.8405 35.7523C12.4416 35.453 12.1012 35.066 11.861 34.637C11.8193 34.5638 11.7879 34.501 11.7901 34.499C11.7943 34.4968 11.8944 34.478 12.0156 34.4592C12.7987 34.3315 13.5839 34.0177 14.2061 33.5867C14.4337 33.4276 14.4253 33.4339 14.4024 33.4674V33.4674ZM17.1588 33.9759C17.3343 34.0219 17.4387 34.0805 17.5639 34.2081C17.691 34.3345 17.7747 34.4981 17.8028 34.6752C17.831 34.8524 17.8022 35.0339 17.7206 35.1936C17.6538 35.3296 17.3969 35.5849 17.1318 35.7837C16.6785 36.1247 15.9665 36.403 15.4382 36.4491L15.3003 36.4616L15.3191 36.3173C15.3818 35.7816 15.5802 35.2375 15.8725 34.7919C16.0458 34.5283 16.3048 34.2249 16.4468 34.1202C16.6639 33.9613 16.9104 33.911 17.1588 33.9759V33.9759Z" fill="#CFA55B"/>
</svg>
