<svg width="511" height="318" viewBox="0 0 511 318" fill="none" xmlns="http://www.w3.org/2000/svg">
<path d="M55.4766 118.145H56.9366V132.145H55.4766V118.145ZM46.7166 132.145H45.2366V118.145H46.7166V132.145ZM55.6166 125.685H46.5566V124.385H55.6166V125.685ZM66.9337 132.145V119.425H62.0137V118.145H73.3337V119.425H68.4137V132.145H66.9337ZM78.4057 132.145V118.145H79.6257L86.0257 129.065H85.3857L91.7257 118.145H92.9457V132.145H91.5257V120.365H91.8657L86.0257 130.365H85.3257L79.4457 120.365H79.8257V132.145H78.4057ZM100.215 132.145V118.145H101.695V130.865H109.535V132.145H100.215ZM117.88 132.265C116.88 132.265 115.926 132.105 115.02 131.785C114.113 131.452 113.393 131.012 112.86 130.465L113.56 129.325C114 129.792 114.6 130.178 115.36 130.485C116.133 130.792 116.966 130.945 117.86 130.945C119.046 130.945 119.946 130.685 120.56 130.165C121.186 129.632 121.5 128.938 121.5 128.085C121.5 127.485 121.353 126.972 121.06 126.545C120.78 126.105 120.3 125.765 119.62 125.525C118.94 125.285 118.006 125.165 116.82 125.165H113.84L114.56 118.145H122.22V119.425H115.14L115.88 118.725L115.26 124.605L114.52 123.885H117.14C118.553 123.885 119.686 124.058 120.54 124.405C121.393 124.752 122.006 125.238 122.38 125.865C122.766 126.478 122.96 127.198 122.96 128.025C122.96 128.812 122.773 129.532 122.4 130.185C122.026 130.825 121.466 131.332 120.72 131.705C119.973 132.078 119.026 132.265 117.88 132.265Z" fill="white"/>
<path d="M234.76 132.265C233.706 132.265 232.733 132.092 231.84 131.745C230.946 131.385 230.173 130.885 229.52 130.245C228.866 129.605 228.353 128.852 227.98 127.985C227.62 127.118 227.44 126.172 227.44 125.145C227.44 124.118 227.62 123.172 227.98 122.305C228.353 121.438 228.866 120.685 229.52 120.045C230.186 119.405 230.966 118.912 231.86 118.565C232.753 118.205 233.726 118.025 234.78 118.025C235.793 118.025 236.746 118.198 237.64 118.545C238.533 118.878 239.286 119.385 239.9 120.065L238.96 121.005C238.386 120.418 237.753 119.998 237.06 119.745C236.366 119.478 235.62 119.345 234.82 119.345C233.98 119.345 233.2 119.492 232.48 119.785C231.76 120.065 231.133 120.472 230.6 121.005C230.066 121.525 229.646 122.138 229.34 122.845C229.046 123.538 228.9 124.305 228.9 125.145C228.9 125.985 229.046 126.758 229.34 127.465C229.646 128.158 230.066 128.772 230.6 129.305C231.133 129.825 231.76 130.232 232.48 130.525C233.2 130.805 233.98 130.945 234.82 130.945C235.62 130.945 236.366 130.812 237.06 130.545C237.753 130.278 238.386 129.852 238.96 129.265L239.9 130.205C239.286 130.885 238.533 131.398 237.64 131.745C236.746 132.092 235.786 132.265 234.76 132.265ZM249.583 132.265C248.543 132.265 247.543 132.098 246.583 131.765C245.637 131.418 244.903 130.978 244.383 130.445L244.963 129.305C245.457 129.785 246.117 130.192 246.943 130.525C247.783 130.845 248.663 131.005 249.583 131.005C250.463 131.005 251.177 130.898 251.723 130.685C252.283 130.458 252.69 130.158 252.943 129.785C253.21 129.412 253.343 128.998 253.343 128.545C253.343 127.998 253.183 127.558 252.863 127.225C252.557 126.892 252.15 126.632 251.643 126.445C251.137 126.245 250.577 126.072 249.963 125.925C249.35 125.778 248.737 125.625 248.123 125.465C247.51 125.292 246.943 125.065 246.423 124.785C245.917 124.505 245.503 124.138 245.183 123.685C244.877 123.218 244.723 122.612 244.723 121.865C244.723 121.172 244.903 120.538 245.263 119.965C245.637 119.378 246.203 118.912 246.963 118.565C247.723 118.205 248.697 118.025 249.883 118.025C250.67 118.025 251.45 118.138 252.223 118.365C252.997 118.578 253.663 118.878 254.223 119.265L253.723 120.445C253.123 120.045 252.483 119.752 251.803 119.565C251.137 119.378 250.49 119.285 249.863 119.285C249.023 119.285 248.33 119.398 247.783 119.625C247.237 119.852 246.83 120.158 246.563 120.545C246.31 120.918 246.183 121.345 246.183 121.825C246.183 122.372 246.337 122.812 246.643 123.145C246.963 123.478 247.377 123.738 247.883 123.925C248.403 124.112 248.97 124.278 249.583 124.425C250.197 124.572 250.803 124.732 251.403 124.905C252.017 125.078 252.577 125.305 253.083 125.585C253.603 125.852 254.017 126.212 254.323 126.665C254.643 127.118 254.803 127.712 254.803 128.445C254.803 129.125 254.617 129.758 254.243 130.345C253.87 130.918 253.297 131.385 252.523 131.745C251.763 132.092 250.783 132.265 249.583 132.265ZM264.595 132.265C263.555 132.265 262.555 132.098 261.595 131.765C260.649 131.418 259.915 130.978 259.395 130.445L259.975 129.305C260.469 129.785 261.129 130.192 261.955 130.525C262.795 130.845 263.675 131.005 264.595 131.005C265.475 131.005 266.189 130.898 266.735 130.685C267.295 130.458 267.702 130.158 267.955 129.785C268.222 129.412 268.355 128.998 268.355 128.545C268.355 127.998 268.195 127.558 267.875 127.225C267.569 126.892 267.162 126.632 266.655 126.445C266.149 126.245 265.589 126.072 264.975 125.925C264.362 125.778 263.749 125.625 263.135 125.465C262.522 125.292 261.955 125.065 261.435 124.785C260.929 124.505 260.515 124.138 260.195 123.685C259.889 123.218 259.735 122.612 259.735 121.865C259.735 121.172 259.915 120.538 260.275 119.965C260.649 119.378 261.215 118.912 261.975 118.565C262.735 118.205 263.709 118.025 264.895 118.025C265.682 118.025 266.462 118.138 267.235 118.365C268.009 118.578 268.675 118.878 269.235 119.265L268.735 120.445C268.135 120.045 267.495 119.752 266.815 119.565C266.149 119.378 265.502 119.285 264.875 119.285C264.035 119.285 263.342 119.398 262.795 119.625C262.249 119.852 261.842 120.158 261.575 120.545C261.322 120.918 261.195 121.345 261.195 121.825C261.195 122.372 261.349 122.812 261.655 123.145C261.975 123.478 262.389 123.738 262.895 123.925C263.415 124.112 263.982 124.278 264.595 124.425C265.209 124.572 265.815 124.732 266.415 124.905C267.029 125.078 267.589 125.305 268.095 125.585C268.615 125.852 269.029 126.212 269.335 126.665C269.655 127.118 269.815 127.712 269.815 128.445C269.815 129.125 269.629 129.758 269.255 130.345C268.882 130.918 268.309 131.385 267.535 131.745C266.775 132.092 265.795 132.265 264.595 132.265ZM278.531 132.265C277.518 132.265 276.558 132.105 275.651 131.785C274.758 131.452 274.038 131.012 273.491 130.465L274.191 129.325C274.645 129.792 275.251 130.178 276.011 130.485C276.785 130.792 277.625 130.945 278.531 130.945C279.691 130.945 280.578 130.692 281.191 130.185C281.818 129.678 282.131 128.998 282.131 128.145C282.131 127.292 281.825 126.612 281.211 126.105C280.611 125.598 279.658 125.345 278.351 125.345H277.351V124.285L281.671 118.865L281.871 119.425H274.071V118.145H283.071V119.165L278.751 124.585L278.051 124.125H278.591C280.271 124.125 281.525 124.498 282.351 125.245C283.191 125.992 283.611 126.952 283.611 128.125C283.611 128.912 283.425 129.618 283.051 130.245C282.678 130.872 282.111 131.365 281.351 131.725C280.605 132.085 279.665 132.265 278.531 132.265Z" fill="white"/>
<path d="M404.101 132.16C403.061 132.16 402.061 131.993 401.101 131.66C400.155 131.313 399.421 130.873 398.901 130.34L399.481 129.2C399.975 129.68 400.635 130.086 401.461 130.42C402.301 130.74 403.181 130.9 404.101 130.9C404.981 130.9 405.695 130.793 406.241 130.58C406.801 130.353 407.208 130.053 407.461 129.68C407.728 129.306 407.861 128.893 407.861 128.44C407.861 127.893 407.701 127.453 407.381 127.12C407.075 126.786 406.668 126.526 406.161 126.34C405.655 126.14 405.095 125.966 404.481 125.82C403.868 125.673 403.255 125.52 402.641 125.36C402.028 125.186 401.461 124.96 400.941 124.68C400.435 124.4 400.021 124.033 399.701 123.58C399.395 123.113 399.241 122.506 399.241 121.76C399.241 121.066 399.421 120.433 399.781 119.86C400.155 119.273 400.721 118.806 401.481 118.46C402.241 118.1 403.215 117.92 404.401 117.92C405.188 117.92 405.968 118.033 406.741 118.26C407.515 118.473 408.181 118.773 408.741 119.16L408.241 120.34C407.641 119.94 407.001 119.646 406.321 119.46C405.655 119.273 405.008 119.18 404.381 119.18C403.541 119.18 402.848 119.293 402.301 119.52C401.755 119.746 401.348 120.053 401.081 120.44C400.828 120.813 400.701 121.24 400.701 121.72C400.701 122.266 400.855 122.706 401.161 123.04C401.481 123.373 401.895 123.633 402.401 123.82C402.921 124.006 403.488 124.173 404.101 124.32C404.715 124.466 405.321 124.626 405.921 124.8C406.535 124.973 407.095 125.2 407.601 125.48C408.121 125.746 408.535 126.106 408.841 126.56C409.161 127.013 409.321 127.606 409.321 128.34C409.321 129.02 409.135 129.653 408.761 130.24C408.388 130.813 407.815 131.28 407.041 131.64C406.281 131.986 405.301 132.16 404.101 132.16ZM413.014 132.04L419.414 118.04H420.874L427.274 132.04H425.714L419.834 118.9H420.434L414.554 132.04H413.014ZM415.534 128.3L415.974 127.1H424.114L424.554 128.3H415.534ZM436.157 132.16C435.117 132.16 434.117 131.993 433.157 131.66C432.211 131.313 431.477 130.873 430.957 130.34L431.537 129.2C432.031 129.68 432.691 130.086 433.517 130.42C434.357 130.74 435.237 130.9 436.157 130.9C437.037 130.9 437.751 130.793 438.297 130.58C438.857 130.353 439.264 130.053 439.517 129.68C439.784 129.306 439.917 128.893 439.917 128.44C439.917 127.893 439.757 127.453 439.437 127.12C439.131 126.786 438.724 126.526 438.217 126.34C437.711 126.14 437.151 125.966 436.537 125.82C435.924 125.673 435.311 125.52 434.697 125.36C434.084 125.186 433.517 124.96 432.997 124.68C432.491 124.4 432.077 124.033 431.757 123.58C431.451 123.113 431.297 122.506 431.297 121.76C431.297 121.066 431.477 120.433 431.837 119.86C432.211 119.273 432.777 118.806 433.537 118.46C434.297 118.1 435.271 117.92 436.457 117.92C437.244 117.92 438.024 118.033 438.797 118.26C439.571 118.473 440.237 118.773 440.797 119.16L440.297 120.34C439.697 119.94 439.057 119.646 438.377 119.46C437.711 119.273 437.064 119.18 436.437 119.18C435.597 119.18 434.904 119.293 434.357 119.52C433.811 119.746 433.404 120.053 433.137 120.44C432.884 120.813 432.757 121.24 432.757 121.72C432.757 122.266 432.911 122.706 433.217 123.04C433.537 123.373 433.951 123.633 434.457 123.82C434.977 124.006 435.544 124.173 436.157 124.32C436.771 124.466 437.377 124.626 437.977 124.8C438.591 124.973 439.151 125.2 439.657 125.48C440.177 125.746 440.591 126.106 440.897 126.56C441.217 127.013 441.377 127.606 441.377 128.34C441.377 129.02 441.191 129.653 440.817 130.24C440.444 130.813 439.871 131.28 439.097 131.64C438.337 131.986 437.357 132.16 436.157 132.16ZM451.169 132.16C450.129 132.16 449.129 131.993 448.169 131.66C447.223 131.313 446.489 130.873 445.969 130.34L446.549 129.2C447.043 129.68 447.703 130.086 448.529 130.42C449.369 130.74 450.249 130.9 451.169 130.9C452.049 130.9 452.763 130.793 453.309 130.58C453.869 130.353 454.276 130.053 454.529 129.68C454.796 129.306 454.929 128.893 454.929 128.44C454.929 127.893 454.769 127.453 454.449 127.12C454.143 126.786 453.736 126.526 453.229 126.34C452.723 126.14 452.163 125.966 451.549 125.82C450.936 125.673 450.323 125.52 449.709 125.36C449.096 125.186 448.529 124.96 448.009 124.68C447.503 124.4 447.089 124.033 446.769 123.58C446.463 123.113 446.309 122.506 446.309 121.76C446.309 121.066 446.489 120.433 446.849 119.86C447.223 119.273 447.789 118.806 448.549 118.46C449.309 118.1 450.283 117.92 451.469 117.92C452.256 117.92 453.036 118.033 453.809 118.26C454.583 118.473 455.249 118.773 455.809 119.16L455.309 120.34C454.709 119.94 454.069 119.646 453.389 119.46C452.723 119.273 452.076 119.18 451.449 119.18C450.609 119.18 449.916 119.293 449.369 119.52C448.823 119.746 448.416 120.053 448.149 120.44C447.896 120.813 447.769 121.24 447.769 121.72C447.769 122.266 447.923 122.706 448.229 123.04C448.549 123.373 448.963 123.633 449.469 123.82C449.989 124.006 450.556 124.173 451.169 124.32C451.783 124.466 452.389 124.626 452.989 124.8C453.603 124.973 454.163 125.2 454.669 125.48C455.189 125.746 455.603 126.106 455.909 126.56C456.229 127.013 456.389 127.606 456.389 128.34C456.389 129.02 456.203 129.653 455.829 130.24C455.456 130.813 454.883 131.28 454.109 131.64C453.349 131.986 452.369 132.16 451.169 132.16Z" fill="white"/>
<path d="M183.727 304.896V290.896H189.767C191.327 290.896 192.534 291.209 193.387 291.836C194.254 292.462 194.687 293.349 194.687 294.496C194.687 295.256 194.507 295.896 194.147 296.416C193.8 296.936 193.32 297.329 192.707 297.596C192.107 297.862 191.447 297.996 190.727 297.996L191.067 297.516C191.96 297.516 192.727 297.656 193.367 297.936C194.02 298.202 194.527 298.609 194.887 299.156C195.247 299.689 195.427 300.356 195.427 301.156C195.427 302.342 194.987 303.262 194.107 303.916C193.24 304.569 191.927 304.896 190.167 304.896H183.727ZM185.207 303.676H190.147C191.374 303.676 192.314 303.469 192.967 303.056C193.62 302.629 193.947 301.956 193.947 301.036C193.947 300.129 193.62 299.469 192.967 299.056C192.314 298.629 191.374 298.416 190.147 298.416H185.047V297.196H189.667C190.787 297.196 191.654 296.982 192.267 296.556C192.894 296.129 193.207 295.496 193.207 294.656C193.207 293.802 192.894 293.169 192.267 292.756C191.654 292.329 190.787 292.116 189.667 292.116H185.207V303.676ZM207.633 305.016C206.579 305.016 205.599 304.842 204.693 304.496C203.799 304.136 203.019 303.636 202.353 302.996C201.699 302.342 201.186 301.589 200.813 300.736C200.453 299.869 200.273 298.922 200.273 297.896C200.273 296.869 200.453 295.929 200.813 295.076C201.186 294.209 201.699 293.456 202.353 292.816C203.019 292.162 203.799 291.662 204.693 291.316C205.586 290.956 206.566 290.776 207.633 290.776C208.686 290.776 209.659 290.956 210.553 291.316C211.446 291.662 212.219 292.156 212.873 292.796C213.539 293.436 214.053 294.189 214.413 295.056C214.786 295.922 214.973 296.869 214.973 297.896C214.973 298.922 214.786 299.869 214.413 300.736C214.053 301.602 213.539 302.356 212.873 302.996C212.219 303.636 211.446 304.136 210.553 304.496C209.659 304.842 208.686 305.016 207.633 305.016ZM207.633 303.696C208.473 303.696 209.246 303.556 209.953 303.276C210.673 302.982 211.293 302.576 211.813 302.056C212.346 301.522 212.759 300.909 213.053 300.216C213.346 299.509 213.493 298.736 213.493 297.896C213.493 297.056 213.346 296.289 213.053 295.596C212.759 294.889 212.346 294.276 211.813 293.756C211.293 293.222 210.673 292.816 209.953 292.536C209.246 292.242 208.473 292.096 207.633 292.096C206.793 292.096 206.013 292.242 205.293 292.536C204.573 292.816 203.946 293.222 203.413 293.756C202.893 294.276 202.479 294.889 202.173 295.596C201.879 296.289 201.733 297.056 201.733 297.896C201.733 298.722 201.879 299.489 202.173 300.196C202.479 300.902 202.893 301.522 203.413 302.056C203.946 302.576 204.573 302.982 205.293 303.276C206.013 303.556 206.793 303.696 207.633 303.696ZM227.118 305.016C226.064 305.016 225.084 304.842 224.178 304.496C223.284 304.136 222.504 303.636 221.838 302.996C221.184 302.342 220.671 301.589 220.298 300.736C219.938 299.869 219.758 298.922 219.758 297.896C219.758 296.869 219.938 295.929 220.298 295.076C220.671 294.209 221.184 293.456 221.838 292.816C222.504 292.162 223.284 291.662 224.178 291.316C225.071 290.956 226.051 290.776 227.118 290.776C228.171 290.776 229.144 290.956 230.038 291.316C230.931 291.662 231.704 292.156 232.358 292.796C233.024 293.436 233.538 294.189 233.898 295.056C234.271 295.922 234.458 296.869 234.458 297.896C234.458 298.922 234.271 299.869 233.898 300.736C233.538 301.602 233.024 302.356 232.358 302.996C231.704 303.636 230.931 304.136 230.038 304.496C229.144 304.842 228.171 305.016 227.118 305.016ZM227.118 303.696C227.958 303.696 228.731 303.556 229.438 303.276C230.158 302.982 230.778 302.576 231.298 302.056C231.831 301.522 232.244 300.909 232.538 300.216C232.831 299.509 232.978 298.736 232.978 297.896C232.978 297.056 232.831 296.289 232.538 295.596C232.244 294.889 231.831 294.276 231.298 293.756C230.778 293.222 230.158 292.816 229.438 292.536C228.731 292.242 227.958 292.096 227.118 292.096C226.278 292.096 225.498 292.242 224.778 292.536C224.058 292.816 223.431 293.222 222.898 293.756C222.378 294.276 221.964 294.889 221.658 295.596C221.364 296.289 221.218 297.056 221.218 297.896C221.218 298.722 221.364 299.489 221.658 300.196C221.964 300.902 222.378 301.522 222.898 302.056C223.431 302.576 224.058 302.982 224.778 303.276C225.498 303.556 226.278 303.696 227.118 303.696ZM243.007 304.896V292.176H238.087V290.896H249.407V292.176H244.487V304.896H243.007ZM258.124 305.016C257.084 305.016 256.084 304.849 255.124 304.516C254.178 304.169 253.444 303.729 252.924 303.196L253.504 302.056C253.998 302.536 254.658 302.942 255.484 303.276C256.324 303.596 257.204 303.756 258.124 303.756C259.004 303.756 259.718 303.649 260.264 303.436C260.824 303.209 261.231 302.909 261.484 302.536C261.751 302.162 261.884 301.749 261.884 301.296C261.884 300.749 261.724 300.309 261.404 299.976C261.098 299.642 260.691 299.382 260.184 299.196C259.678 298.996 259.118 298.822 258.504 298.676C257.891 298.529 257.278 298.376 256.664 298.216C256.051 298.042 255.484 297.816 254.964 297.536C254.458 297.256 254.044 296.889 253.724 296.436C253.418 295.969 253.264 295.362 253.264 294.616C253.264 293.922 253.444 293.289 253.804 292.716C254.178 292.129 254.744 291.662 255.504 291.316C256.264 290.956 257.238 290.776 258.424 290.776C259.211 290.776 259.991 290.889 260.764 291.116C261.538 291.329 262.204 291.629 262.764 292.016L262.264 293.196C261.664 292.796 261.024 292.502 260.344 292.316C259.678 292.129 259.031 292.036 258.404 292.036C257.564 292.036 256.871 292.149 256.324 292.376C255.778 292.602 255.371 292.909 255.104 293.296C254.851 293.669 254.724 294.096 254.724 294.576C254.724 295.122 254.878 295.562 255.184 295.896C255.504 296.229 255.918 296.489 256.424 296.676C256.944 296.862 257.511 297.029 258.124 297.176C258.738 297.322 259.344 297.482 259.944 297.656C260.558 297.829 261.118 298.056 261.624 298.336C262.144 298.602 262.558 298.962 262.864 299.416C263.184 299.869 263.344 300.462 263.344 301.196C263.344 301.876 263.158 302.509 262.784 303.096C262.411 303.669 261.838 304.136 261.064 304.496C260.304 304.842 259.324 305.016 258.124 305.016ZM271.801 304.896V292.176H266.881V290.896H278.201V292.176H273.281V304.896H271.801ZM283.273 304.896V290.896H288.513C289.7 290.896 290.72 291.089 291.573 291.476C292.427 291.849 293.08 292.396 293.533 293.116C294 293.822 294.233 294.682 294.233 295.696C294.233 296.682 294 297.536 293.533 298.256C293.08 298.962 292.427 299.509 291.573 299.896C290.72 300.269 289.7 300.456 288.513 300.456H284.093L284.753 299.776V304.896H283.273ZM292.833 304.896L289.233 299.816H290.833L294.453 304.896H292.833ZM284.753 299.896L284.093 299.196H288.473C289.873 299.196 290.933 298.889 291.653 298.276C292.387 297.662 292.753 296.802 292.753 295.696C292.753 294.576 292.387 293.709 291.653 293.096C290.933 292.482 289.873 292.176 288.473 292.176H284.093L284.753 291.476V299.896ZM298.194 304.896L304.594 290.896H306.054L312.454 304.896H310.894L305.014 291.756H305.614L299.734 304.896H298.194ZM300.714 301.156L301.154 299.956H309.294L309.734 301.156H300.714ZM317.478 304.896V290.896H322.718C323.904 290.896 324.924 291.089 325.778 291.476C326.631 291.849 327.284 292.396 327.738 293.116C328.204 293.822 328.438 294.682 328.438 295.696C328.438 296.682 328.204 297.536 327.738 298.256C327.284 298.962 326.631 299.509 325.778 299.896C324.924 300.282 323.904 300.476 322.718 300.476H318.298L318.958 299.776V304.896H317.478ZM318.958 299.896L318.298 299.176H322.678C324.078 299.176 325.138 298.876 325.858 298.276C326.591 297.662 326.958 296.802 326.958 295.696C326.958 294.576 326.591 293.709 325.858 293.096C325.138 292.482 324.078 292.176 322.678 292.176H318.298L318.958 291.476V299.896Z" fill="white"/>
<path d="M416.866 304.91C415.799 304.91 414.813 304.737 413.906 304.39C413.013 304.03 412.233 303.53 411.566 302.89C410.913 302.25 410.399 301.497 410.026 300.63C409.666 299.763 409.486 298.817 409.486 297.79C409.486 296.763 409.666 295.817 410.026 294.95C410.399 294.083 410.919 293.33 411.586 292.69C412.253 292.05 413.033 291.557 413.926 291.21C414.833 290.85 415.819 290.67 416.886 290.67C417.953 290.67 418.926 290.837 419.806 291.17C420.699 291.503 421.459 292.01 422.086 292.69L421.166 293.63C420.579 293.043 419.933 292.623 419.226 292.37C418.519 292.117 417.759 291.99 416.946 291.99C416.079 291.99 415.279 292.137 414.546 292.43C413.826 292.71 413.193 293.117 412.646 293.65C412.113 294.17 411.693 294.783 411.386 295.49C411.093 296.183 410.946 296.95 410.946 297.79C410.946 298.617 411.093 299.383 411.386 300.09C411.693 300.797 412.113 301.417 412.646 301.95C413.193 302.47 413.826 302.877 414.546 303.17C415.279 303.45 416.073 303.59 416.926 303.59C417.726 303.59 418.479 303.47 419.186 303.23C419.906 302.99 420.566 302.583 421.166 302.01L422.006 303.13C421.339 303.717 420.559 304.163 419.666 304.47C418.773 304.763 417.839 304.91 416.866 304.91ZM420.586 302.95V297.79H422.006V303.13L420.586 302.95ZM428.902 304.79V290.79H430.382V304.79H428.902ZM440.365 304.79V292.07H435.445V290.79H446.765V292.07H441.845V304.79H440.365Z" fill="white"/>
<path d="M47.7382 297.676H55.1382V298.956H47.7382V297.676ZM47.8982 304.896H46.4182V290.896H56.0182V292.176H47.8982V304.896ZM61.7821 304.896V290.896H63.2621V304.896H61.7821ZM76.6648 305.016C75.5982 305.016 74.6115 304.842 73.7048 304.496C72.8115 304.136 72.0315 303.636 71.3648 302.996C70.7115 302.356 70.1982 301.602 69.8248 300.736C69.4648 299.869 69.2848 298.922 69.2848 297.896C69.2848 296.869 69.4648 295.922 69.8248 295.056C70.1982 294.189 70.7182 293.436 71.3848 292.796C72.0515 292.156 72.8315 291.662 73.7248 291.316C74.6315 290.956 75.6182 290.776 76.6848 290.776C77.7515 290.776 78.7248 290.942 79.6048 291.276C80.4982 291.609 81.2582 292.116 81.8848 292.796L80.9648 293.736C80.3782 293.149 79.7315 292.729 79.0248 292.476C78.3182 292.222 77.5582 292.096 76.7448 292.096C75.8782 292.096 75.0782 292.242 74.3448 292.536C73.6248 292.816 72.9915 293.222 72.4448 293.756C71.9115 294.276 71.4915 294.889 71.1848 295.596C70.8915 296.289 70.7448 297.056 70.7448 297.896C70.7448 298.722 70.8915 299.489 71.1848 300.196C71.4915 300.902 71.9115 301.522 72.4448 302.056C72.9915 302.576 73.6248 302.982 74.3448 303.276C75.0782 303.556 75.8715 303.696 76.7248 303.696C77.5248 303.696 78.2782 303.576 78.9848 303.336C79.7048 303.096 80.3648 302.689 80.9648 302.116L81.8048 303.236C81.1382 303.822 80.3582 304.269 79.4648 304.576C78.5715 304.869 77.6382 305.016 76.6648 305.016ZM80.3848 303.056V297.896H81.8048V303.236L80.3848 303.056ZM88.7012 304.896V290.896H89.9212L96.3212 301.816H95.6812L102.021 290.896H103.241V304.896H101.821V293.116H102.161L96.3212 303.116H95.6212L89.7412 293.116H90.1212V304.896H88.7012ZM108.27 304.896L114.67 290.896H116.13L122.53 304.896H120.97L115.09 291.756H115.69L109.81 304.896H108.27ZM110.79 301.156L111.23 299.956H119.37L119.81 301.156H110.79Z" fill="white"/>
<path d="M289.423 236.875C289.423 243.88 284.4 249.611 278.26 249.611H233.605C227.465 249.611 222.441 243.88 222.441 236.875V185.932C222.441 178.928 227.465 173.197 233.605 173.197H278.26C284.4 173.197 289.423 178.928 289.423 185.932V236.875Z" fill="#CFA55B"/>
<path d="M240.642 189.803H259.631C263.134 189.803 265.947 190.715 268.059 192.55C270.171 194.386 271.233 197.145 271.233 200.853C271.233 203.101 270.751 205.024 269.788 206.622C268.825 208.22 267.446 209.469 265.651 210.343V210.467C268.059 211.054 269.887 212.353 271.123 214.363C272.36 216.386 272.984 218.908 272.984 221.955C272.984 223.703 272.71 225.338 272.163 226.849C271.616 228.372 270.762 229.683 269.591 230.782C268.42 231.881 266.932 232.755 265.104 233.404C263.276 234.053 261.109 234.378 258.592 234.378H240.642V189.803ZM247.483 208.47H258.646C260.288 208.47 261.656 207.945 262.751 206.872C263.845 205.798 264.392 204.274 264.392 202.277C264.392 200.029 263.9 198.444 262.915 197.532C261.93 196.621 260.507 196.159 258.646 196.159H247.483V208.47ZM247.483 228.01H259.577C261.656 228.01 263.276 227.398 264.414 226.162C265.564 224.939 266.144 223.191 266.144 220.943C266.144 218.733 265.574 217.048 264.414 215.849C263.254 214.65 261.656 214.076 259.577 214.076H247.483V228.01Z" fill="white"/>
<g clip-path="url(#clip0_145_10)">
<path d="M71.2511 249.611C77.9241 249.611 83.3399 243.905 83.3399 236.875V224.14H71.2511C64.5781 224.14 59.1624 229.845 59.1624 236.875C59.1624 243.905 64.5781 249.611 71.2511 249.611Z" fill="#E7B45B"/>
<path d="M59.1624 211.404C59.1624 204.374 64.5781 198.668 71.2511 198.668H83.3399V224.139H71.2511C64.5781 224.139 59.1624 218.434 59.1624 211.404Z" fill="#A37E3D"/>
<path d="M59.1609 185.932C59.1609 178.902 64.5767 173.197 71.2496 173.197H83.3384V198.668H71.2496C64.5767 198.668 59.1609 192.963 59.1609 185.932Z" fill="#EFBB5F"/>
<path d="M83.3406 173.197H95.4293C102.102 173.197 107.518 178.902 107.518 185.932C107.518 192.963 102.102 198.668 95.4293 198.668H83.3406V173.197Z" fill="#CFA55B"/>
<path d="M107.518 211.404C107.518 218.434 102.102 224.139 95.4293 224.139C88.7563 224.139 83.3406 218.434 83.3406 211.404C83.3406 204.374 88.7563 198.668 95.4293 198.668C102.102 198.668 107.518 204.374 107.518 211.404Z" fill="#8A682C"/>
</g>
<path d="M54.2864 0.445801L59.624 69.2184L83.5912 76.8598L107.55 69.2232L112.896 0.445801H54.2864Z" fill="#CFA55B"/>
<path d="M101.321 22.9358H83.5913H73.2299L73.8997 31.5753H83.5913H100.651L98.6372 57.4797L83.5913 62.2699L83.5787 62.2747L68.5412 57.4797L67.4904 43.9305H74.8584L75.4068 50.9606L83.5829 53.4966L83.5913 53.4918L91.7757 50.9558L92.6297 40.0143H83.5913H67.1889L65.2046 14.5063H83.5913H101.974L101.321 22.9358Z" fill="#FFF8F8"/>
<path d="M226.617 0.445801L231.95 69.2184L255.897 76.8598L279.836 69.2232L285.178 0.445801H226.617Z" fill="#CFA55B"/>
<path d="M273.775 22.9355L273.101 31.5751L271.069 57.4746L255.897 62.2648L255.885 62.2696L240.721 57.4746L239.663 43.9303H247.092L247.644 50.9556L255.889 53.4963L255.893 53.4916L264.15 50.9508L265.275 39.2451L239.308 39.3263L238.571 31.322L265.898 30.9542L266.451 22.3863L237.839 22.477L237.358 14.5061H255.897H274.436L273.775 22.9355Z" fill="#FAFAFA"/>
<path d="M459.268 44.2642C456.204 44.2843 453.551 45.1392 451.326 46.412C450.504 44.5229 449.683 42.8723 449.546 41.6396C449.392 40.2079 449.204 39.3328 449.392 37.6228C449.58 35.9125 450.436 33.4866 450.436 33.2877C450.418 33.1087 450.247 32.2338 448.485 32.2139C446.722 32.194 445.198 32.6116 445.027 33.1485C444.856 33.6854 444.514 34.9183 444.291 36.1909C443.983 38.0601 440.765 44.6818 438.934 48.1617C438.335 46.8095 437.821 45.6164 437.718 44.6617C437.564 43.2302 437.376 42.3551 437.564 40.6452C437.753 38.9349 438.609 36.5091 438.609 36.3102C438.591 36.1313 438.42 35.2563 436.657 35.2364C434.894 35.2166 433.371 35.6341 433.2 36.171C433.029 36.7079 432.841 37.9806 432.464 39.2134C432.104 40.4463 427.825 51.5024 426.713 54.3857C426.148 55.8572 425.652 57.0304 425.292 57.8258C424.933 58.6212 425.275 57.8854 425.241 57.965C424.933 58.6411 424.762 59.0189 424.762 59.0189V59.039C424.522 59.5361 424.265 60.0131 424.145 60.0131C424.06 60.0131 423.889 58.6808 424.179 56.8516C424.813 53.0136 426.353 47.0284 426.336 46.8097C426.336 46.7103 426.627 45.6562 425.343 45.1195C424.094 44.5826 423.649 45.4774 423.546 45.4774C423.443 45.4774 423.358 45.7956 423.358 45.7956C423.358 45.7956 424.744 39.0548 420.705 39.0548C418.172 39.0548 414.68 42.2562 412.951 45.1793C411.856 45.8753 409.528 47.3466 407.063 48.9177C406.122 49.5143 405.146 50.1506 404.222 50.7272L404.034 50.4882C399.139 44.4233 390.084 40.1282 390.461 31.9753C390.598 29.0124 391.488 21.1976 407.851 11.7324C421.253 3.97725 431.985 6.10495 433.85 10.8376C436.503 17.5985 428.116 30.1658 414.184 31.9753C408.878 32.6713 406.088 30.2851 405.386 29.3903C404.65 28.4557 404.548 28.4159 404.274 28.5949C403.829 28.8733 404.103 29.7084 404.274 30.2055C404.685 31.4583 406.396 33.6854 409.306 34.799C411.856 35.7733 418.087 36.3102 425.618 32.9298C434.056 29.1318 440.646 18.5927 438.711 9.78367C436.743 0.815541 423.94 -2.12744 411.839 2.86369C404.633 5.84644 396.828 10.4995 391.214 16.6042C384.539 23.8424 383.478 30.1658 383.923 32.7906C385.48 42.1564 396.589 48.2611 401.039 52.775C400.816 52.914 400.611 53.0532 400.423 53.1727C398.197 54.4451 389.725 59.5956 387.603 65.0438C385.206 71.2082 387.979 75.6427 389.828 76.2393C395.544 78.0886 401.398 74.7678 404.565 69.2994C407.714 63.8311 407.337 56.7321 405.883 53.4909L405.831 53.3716L407.577 52.1785C408.707 51.4029 409.819 50.6871 410.795 50.0704C410.247 51.8004 409.853 53.8486 409.648 56.8313C409.408 60.3313 410.641 64.8649 412.267 66.6545C412.986 67.4298 413.842 67.4499 414.372 67.4499C416.255 67.4499 417.111 65.6402 418.052 63.4729C419.216 60.8282 420.243 57.7659 420.243 57.7659C420.243 57.7659 418.959 66.058 422.468 66.058C423.752 66.058 425.035 64.1291 425.617 63.1349V63.1548C425.617 63.1548 425.652 63.0951 425.72 62.9559C425.792 62.8325 425.86 62.7066 425.925 62.5783V62.5385C426.439 61.5045 427.586 59.1382 429.297 55.2209C431.505 50.1701 433.628 43.8466 433.628 43.8466C433.628 43.8466 433.833 45.3977 434.466 47.9429C434.843 49.4544 435.664 51.1047 436.298 52.7153C435.784 53.5505 435.476 54.028 435.476 54.028L435.493 54.0478C435.083 54.6842 434.62 55.3604 434.141 56.0363C432.395 58.4623 430.307 61.2265 430.033 62.0219C429.708 62.9563 429.777 63.6523 430.41 64.2093C430.872 64.607 431.694 64.6863 432.567 64.607C434.141 64.4875 435.237 64.0303 435.784 63.7517C436.64 63.3938 437.616 62.8569 438.557 62.0615C440.269 60.5902 441.313 58.5023 441.21 55.7184C441.159 54.1872 440.731 52.676 440.2 51.2443C440.354 50.9857 440.509 50.727 440.662 50.4489C443.367 45.8552 445.455 40.8046 445.455 40.8046C445.455 40.8046 445.66 42.3557 446.294 44.9009C446.619 46.1935 447.269 47.6055 447.851 48.9974C445.318 51.4035 443.726 54.1874 443.179 56.0169C442.169 59.3973 442.956 60.9284 444.445 61.2864C445.112 61.4455 446.071 61.0875 446.79 60.7296C447.68 60.3915 448.758 59.8147 449.751 58.9598C451.463 57.4883 453.106 55.4402 453.02 52.6762C452.969 51.4035 452.678 50.1508 452.284 48.9577C454.441 47.9237 457.231 47.3271 460.774 47.8242C468.391 48.8583 469.897 54.3863 469.606 56.6929C469.315 58.9998 467.723 60.2722 467.192 60.6699C466.662 61.0478 466.491 61.1871 466.542 61.4653C466.61 61.8831 466.85 61.863 467.312 61.7837C467.946 61.6642 471.317 59.8946 471.454 55.6394C471.66 50.1703 467.192 44.2048 459.268 44.2642V44.2642ZM400.525 67.2712C398.009 70.4726 394.466 71.6856 392.96 70.6516C391.334 69.5579 391.967 64.8452 395.065 61.4449C396.948 59.3768 399.396 57.4679 401.004 56.2946C401.364 56.0361 401.912 55.6585 402.562 55.201C402.665 55.1216 402.733 55.0817 402.733 55.0817C402.853 55.0021 402.99 54.9027 403.127 54.8033C404.274 59.6552 403.178 63.9106 400.525 67.2712V67.2712ZM418.925 52.7352C418.052 55.2209 416.204 61.6039 415.091 61.246C414.132 60.9477 413.551 56.1157 414.903 51.3433C415.587 48.937 417.042 46.0738 417.898 44.96C419.284 43.1704 420.79 42.5738 421.167 43.3095C421.612 44.2642 419.473 51.1842 418.925 52.7352ZM434.107 61.1665C433.73 61.3854 433.388 61.5443 433.234 61.4252C433.114 61.3456 433.388 61.0474 433.388 61.0474C433.388 61.0474 435.288 58.681 436.041 57.5874C436.469 56.9512 436.982 56.2155 437.53 55.3801V55.6188C437.53 58.482 435.168 60.391 434.107 61.1665ZM445.814 58.0644C445.54 57.8258 445.575 57.09 446.499 54.7834C446.858 53.8687 447.68 52.3375 449.101 50.8859C449.272 51.4825 449.375 52.0589 449.357 52.596C449.34 56.1753 447.149 57.5076 445.814 58.0644Z" fill="#CFA55B"/>
<defs>
<clipPath id="clip0_145_10">
<rect width="48.3647" height="76.414" fill="white" transform="translate(59.1582 173.197)"/>
</clipPath>
</defs>
</svg>
