<svg width="502" height="318" viewBox="0 0 502 318" fill="none" xmlns="http://www.w3.org/2000/svg">
<path d="M53.918 117.699H55.378V131.699H53.918V117.699ZM45.158 131.699H43.678V117.699H45.158V131.699ZM54.058 125.239H44.998V123.939H54.058V125.239ZM65.3752 131.699V118.979H60.4552V117.699H71.7752V118.979H66.8552V131.699H65.3752ZM76.8471 131.699V117.699H78.0671L84.4671 128.619H83.8271L90.1671 117.699H91.3871V131.699H89.9671V119.919H90.3071L84.4671 129.919H83.7671L77.8871 119.919H78.2671V131.699H76.8471ZM98.6563 131.699V117.699H100.136V130.419H107.976V131.699H98.6563ZM116.321 131.819C115.321 131.819 114.368 131.659 113.461 131.339C112.555 131.006 111.835 130.566 111.301 130.019L112.001 128.879C112.441 129.346 113.041 129.733 113.801 130.039C114.575 130.346 115.408 130.499 116.301 130.499C117.488 130.499 118.388 130.239 119.001 129.719C119.628 129.186 119.941 128.493 119.941 127.639C119.941 127.039 119.795 126.526 119.501 126.099C119.221 125.659 118.741 125.319 118.061 125.079C117.381 124.839 116.448 124.719 115.261 124.719H112.281L113.001 117.699H120.661V118.979H113.581L114.321 118.279L113.701 124.159L112.961 123.439H115.581C116.995 123.439 118.128 123.613 118.981 123.959C119.835 124.306 120.448 124.793 120.821 125.419C121.208 126.033 121.401 126.753 121.401 127.579C121.401 128.366 121.215 129.086 120.841 129.739C120.468 130.379 119.908 130.886 119.161 131.259C118.415 131.633 117.468 131.819 116.321 131.819Z" fill="white"/>
<path d="M229.982 131.819C228.929 131.819 227.956 131.646 227.062 131.299C226.169 130.939 225.396 130.439 224.742 129.799C224.089 129.159 223.576 128.406 223.202 127.539C222.842 126.673 222.662 125.726 222.662 124.699C222.662 123.673 222.842 122.726 223.202 121.859C223.576 120.993 224.089 120.239 224.742 119.599C225.409 118.959 226.189 118.466 227.082 118.119C227.976 117.759 228.949 117.579 230.002 117.579C231.016 117.579 231.969 117.753 232.862 118.099C233.756 118.433 234.509 118.939 235.122 119.619L234.182 120.559C233.609 119.973 232.976 119.553 232.282 119.299C231.589 119.033 230.842 118.899 230.042 118.899C229.202 118.899 228.422 119.046 227.702 119.339C226.982 119.619 226.356 120.026 225.822 120.559C225.289 121.079 224.869 121.693 224.562 122.399C224.269 123.093 224.122 123.859 224.122 124.699C224.122 125.539 224.269 126.313 224.562 127.019C224.869 127.713 225.289 128.326 225.822 128.859C226.356 129.379 226.982 129.786 227.702 130.079C228.422 130.359 229.202 130.499 230.042 130.499C230.842 130.499 231.589 130.366 232.282 130.099C232.976 129.833 233.609 129.406 234.182 128.819L235.122 129.759C234.509 130.439 233.756 130.953 232.862 131.299C231.969 131.646 231.009 131.819 229.982 131.819ZM244.806 131.819C243.766 131.819 242.766 131.653 241.806 131.319C240.859 130.973 240.126 130.533 239.606 129.999L240.186 128.859C240.679 129.339 241.339 129.746 242.166 130.079C243.006 130.399 243.886 130.559 244.806 130.559C245.686 130.559 246.399 130.453 246.946 130.239C247.506 130.013 247.913 129.713 248.166 129.339C248.433 128.966 248.566 128.553 248.566 128.099C248.566 127.553 248.406 127.113 248.086 126.779C247.779 126.446 247.373 126.186 246.866 125.999C246.359 125.799 245.799 125.626 245.186 125.479C244.573 125.333 243.959 125.179 243.346 125.019C242.733 124.846 242.166 124.619 241.646 124.339C241.139 124.059 240.726 123.693 240.406 123.239C240.099 122.773 239.946 122.166 239.946 121.419C239.946 120.726 240.126 120.093 240.486 119.519C240.859 118.933 241.426 118.466 242.186 118.119C242.946 117.759 243.919 117.579 245.106 117.579C245.893 117.579 246.673 117.693 247.446 117.919C248.219 118.133 248.886 118.433 249.446 118.819L248.946 119.999C248.346 119.599 247.706 119.306 247.026 119.119C246.359 118.933 245.713 118.839 245.086 118.839C244.246 118.839 243.553 118.953 243.006 119.179C242.459 119.406 242.053 119.713 241.786 120.099C241.533 120.473 241.406 120.899 241.406 121.379C241.406 121.926 241.559 122.366 241.866 122.699C242.186 123.033 242.599 123.293 243.106 123.479C243.626 123.666 244.193 123.833 244.806 123.979C245.419 124.126 246.026 124.286 246.626 124.459C247.239 124.633 247.799 124.859 248.306 125.139C248.826 125.406 249.239 125.766 249.546 126.219C249.866 126.673 250.026 127.266 250.026 127.999C250.026 128.679 249.839 129.313 249.466 129.899C249.093 130.473 248.519 130.939 247.746 131.299C246.986 131.646 246.006 131.819 244.806 131.819ZM259.818 131.819C258.778 131.819 257.778 131.653 256.818 131.319C255.872 130.973 255.138 130.533 254.618 129.999L255.198 128.859C255.692 129.339 256.352 129.746 257.178 130.079C258.018 130.399 258.898 130.559 259.818 130.559C260.698 130.559 261.412 130.453 261.958 130.239C262.518 130.013 262.925 129.713 263.178 129.339C263.445 128.966 263.578 128.553 263.578 128.099C263.578 127.553 263.418 127.113 263.098 126.779C262.792 126.446 262.385 126.186 261.878 125.999C261.372 125.799 260.812 125.626 260.198 125.479C259.585 125.333 258.972 125.179 258.358 125.019C257.745 124.846 257.178 124.619 256.658 124.339C256.152 124.059 255.738 123.693 255.418 123.239C255.112 122.773 254.958 122.166 254.958 121.419C254.958 120.726 255.138 120.093 255.498 119.519C255.872 118.933 256.438 118.466 257.198 118.119C257.958 117.759 258.932 117.579 260.118 117.579C260.905 117.579 261.685 117.693 262.458 117.919C263.232 118.133 263.898 118.433 264.458 118.819L263.958 119.999C263.358 119.599 262.718 119.306 262.038 119.119C261.372 118.933 260.725 118.839 260.098 118.839C259.258 118.839 258.565 118.953 258.018 119.179C257.472 119.406 257.065 119.713 256.798 120.099C256.545 120.473 256.418 120.899 256.418 121.379C256.418 121.926 256.572 122.366 256.878 122.699C257.198 123.033 257.612 123.293 258.118 123.479C258.638 123.666 259.205 123.833 259.818 123.979C260.432 124.126 261.038 124.286 261.638 124.459C262.252 124.633 262.812 124.859 263.318 125.139C263.838 125.406 264.252 125.766 264.558 126.219C264.878 126.673 265.038 127.266 265.038 127.999C265.038 128.679 264.852 129.313 264.478 129.899C264.105 130.473 263.532 130.939 262.758 131.299C261.998 131.646 261.018 131.819 259.818 131.819ZM273.754 131.819C272.741 131.819 271.781 131.659 270.874 131.339C269.981 131.006 269.261 130.566 268.714 130.019L269.414 128.879C269.868 129.346 270.474 129.733 271.234 130.039C272.008 130.346 272.848 130.499 273.754 130.499C274.914 130.499 275.801 130.246 276.414 129.739C277.041 129.233 277.354 128.553 277.354 127.699C277.354 126.846 277.048 126.166 276.434 125.659C275.834 125.153 274.881 124.899 273.574 124.899H272.574V123.839L276.894 118.419L277.094 118.979H269.294V117.699H278.294V118.719L273.974 124.139L273.274 123.679H273.814C275.494 123.679 276.748 124.053 277.574 124.799C278.414 125.546 278.834 126.506 278.834 127.679C278.834 128.466 278.648 129.173 278.274 129.799C277.901 130.426 277.334 130.919 276.574 131.279C275.828 131.639 274.888 131.819 273.754 131.819Z" fill="white"/>
<path d="M396.105 131.714C395.065 131.714 394.065 131.547 393.105 131.214C392.159 130.867 391.425 130.427 390.905 129.894L391.485 128.754C391.979 129.234 392.639 129.641 393.465 129.974C394.305 130.294 395.185 130.454 396.105 130.454C396.985 130.454 397.699 130.347 398.245 130.134C398.805 129.907 399.212 129.607 399.465 129.234C399.732 128.861 399.865 128.447 399.865 127.994C399.865 127.447 399.705 127.007 399.385 126.674C399.079 126.341 398.672 126.081 398.165 125.894C397.659 125.694 397.099 125.521 396.485 125.374C395.872 125.227 395.259 125.074 394.645 124.914C394.032 124.741 393.465 124.514 392.945 124.234C392.439 123.954 392.025 123.587 391.705 123.134C391.399 122.667 391.245 122.061 391.245 121.314C391.245 120.621 391.425 119.987 391.785 119.414C392.159 118.827 392.725 118.361 393.485 118.014C394.245 117.654 395.219 117.474 396.405 117.474C397.192 117.474 397.972 117.587 398.745 117.814C399.519 118.027 400.185 118.327 400.745 118.714L400.245 119.894C399.645 119.494 399.005 119.201 398.325 119.014C397.659 118.827 397.012 118.734 396.385 118.734C395.545 118.734 394.852 118.847 394.305 119.074C393.759 119.301 393.352 119.607 393.085 119.994C392.832 120.367 392.705 120.794 392.705 121.274C392.705 121.821 392.859 122.261 393.165 122.594C393.485 122.927 393.899 123.187 394.405 123.374C394.925 123.561 395.492 123.727 396.105 123.874C396.719 124.021 397.325 124.181 397.925 124.354C398.539 124.527 399.099 124.754 399.605 125.034C400.125 125.301 400.539 125.661 400.845 126.114C401.165 126.567 401.325 127.161 401.325 127.894C401.325 128.574 401.139 129.207 400.765 129.794C400.392 130.367 399.819 130.834 399.045 131.194C398.285 131.541 397.305 131.714 396.105 131.714ZM405.018 131.594L411.418 117.594H412.878L419.278 131.594H417.718L411.838 118.454H412.438L406.558 131.594H405.018ZM407.538 127.854L407.978 126.654H416.118L416.558 127.854H407.538ZM428.161 131.714C427.121 131.714 426.121 131.547 425.161 131.214C424.215 130.867 423.481 130.427 422.961 129.894L423.541 128.754C424.035 129.234 424.695 129.641 425.521 129.974C426.361 130.294 427.241 130.454 428.161 130.454C429.041 130.454 429.755 130.347 430.301 130.134C430.861 129.907 431.268 129.607 431.521 129.234C431.788 128.861 431.921 128.447 431.921 127.994C431.921 127.447 431.761 127.007 431.441 126.674C431.135 126.341 430.728 126.081 430.221 125.894C429.715 125.694 429.155 125.521 428.541 125.374C427.928 125.227 427.315 125.074 426.701 124.914C426.088 124.741 425.521 124.514 425.001 124.234C424.495 123.954 424.081 123.587 423.761 123.134C423.455 122.667 423.301 122.061 423.301 121.314C423.301 120.621 423.481 119.987 423.841 119.414C424.215 118.827 424.781 118.361 425.541 118.014C426.301 117.654 427.275 117.474 428.461 117.474C429.248 117.474 430.028 117.587 430.801 117.814C431.575 118.027 432.241 118.327 432.801 118.714L432.301 119.894C431.701 119.494 431.061 119.201 430.381 119.014C429.715 118.827 429.068 118.734 428.441 118.734C427.601 118.734 426.908 118.847 426.361 119.074C425.815 119.301 425.408 119.607 425.141 119.994C424.888 120.367 424.761 120.794 424.761 121.274C424.761 121.821 424.915 122.261 425.221 122.594C425.541 122.927 425.955 123.187 426.461 123.374C426.981 123.561 427.548 123.727 428.161 123.874C428.775 124.021 429.381 124.181 429.981 124.354C430.595 124.527 431.155 124.754 431.661 125.034C432.181 125.301 432.595 125.661 432.901 126.114C433.221 126.567 433.381 127.161 433.381 127.894C433.381 128.574 433.195 129.207 432.821 129.794C432.448 130.367 431.875 130.834 431.101 131.194C430.341 131.541 429.361 131.714 428.161 131.714ZM443.174 131.714C442.134 131.714 441.134 131.547 440.174 131.214C439.227 130.867 438.494 130.427 437.974 129.894L438.554 128.754C439.047 129.234 439.707 129.641 440.534 129.974C441.374 130.294 442.254 130.454 443.174 130.454C444.054 130.454 444.767 130.347 445.314 130.134C445.874 129.907 446.28 129.607 446.534 129.234C446.8 128.861 446.934 128.447 446.934 127.994C446.934 127.447 446.774 127.007 446.454 126.674C446.147 126.341 445.74 126.081 445.234 125.894C444.727 125.694 444.167 125.521 443.554 125.374C442.94 125.227 442.327 125.074 441.714 124.914C441.1 124.741 440.534 124.514 440.014 124.234C439.507 123.954 439.094 123.587 438.774 123.134C438.467 122.667 438.314 122.061 438.314 121.314C438.314 120.621 438.494 119.987 438.854 119.414C439.227 118.827 439.794 118.361 440.554 118.014C441.314 117.654 442.287 117.474 443.474 117.474C444.26 117.474 445.04 117.587 445.814 117.814C446.587 118.027 447.254 118.327 447.814 118.714L447.314 119.894C446.714 119.494 446.074 119.201 445.394 119.014C444.727 118.827 444.08 118.734 443.454 118.734C442.614 118.734 441.92 118.847 441.374 119.074C440.827 119.301 440.42 119.607 440.154 119.994C439.9 120.367 439.774 120.794 439.774 121.274C439.774 121.821 439.927 122.261 440.234 122.594C440.554 122.927 440.967 123.187 441.474 123.374C441.994 123.561 442.56 123.727 443.174 123.874C443.787 124.021 444.394 124.181 444.994 124.354C445.607 124.527 446.167 124.754 446.674 125.034C447.194 125.301 447.607 125.661 447.914 126.114C448.234 126.567 448.394 127.161 448.394 127.894C448.394 128.574 448.207 129.207 447.834 129.794C447.46 130.367 446.887 130.834 446.114 131.194C445.354 131.541 444.374 131.714 443.174 131.714Z" fill="white"/>
<path d="M178.95 304.45V290.45H184.99C186.55 290.45 187.756 290.763 188.61 291.39C189.476 292.016 189.91 292.903 189.91 294.05C189.91 294.81 189.73 295.45 189.37 295.97C189.023 296.49 188.543 296.883 187.93 297.15C187.33 297.416 186.67 297.55 185.95 297.55L186.29 297.07C187.183 297.07 187.95 297.21 188.59 297.49C189.243 297.756 189.75 298.163 190.11 298.71C190.47 299.243 190.65 299.91 190.65 300.71C190.65 301.896 190.21 302.816 189.33 303.47C188.463 304.123 187.15 304.45 185.39 304.45H178.95ZM180.43 303.23H185.37C186.596 303.23 187.536 303.023 188.19 302.61C188.843 302.183 189.17 301.51 189.17 300.59C189.17 299.683 188.843 299.023 188.19 298.61C187.536 298.183 186.596 297.97 185.37 297.97H180.27V296.75H184.89C186.01 296.75 186.876 296.536 187.49 296.11C188.116 295.683 188.43 295.05 188.43 294.21C188.43 293.356 188.116 292.723 187.49 292.31C186.876 291.883 186.01 291.67 184.89 291.67H180.43V303.23ZM202.855 304.57C201.802 304.57 200.822 304.396 199.915 304.05C199.022 303.69 198.242 303.19 197.575 302.55C196.922 301.896 196.409 301.143 196.035 300.29C195.675 299.423 195.495 298.476 195.495 297.45C195.495 296.423 195.675 295.483 196.035 294.63C196.409 293.763 196.922 293.01 197.575 292.37C198.242 291.716 199.022 291.216 199.915 290.87C200.809 290.51 201.789 290.33 202.855 290.33C203.909 290.33 204.882 290.51 205.775 290.87C206.669 291.216 207.442 291.71 208.095 292.35C208.762 292.99 209.275 293.743 209.635 294.61C210.009 295.476 210.195 296.423 210.195 297.45C210.195 298.476 210.009 299.423 209.635 300.29C209.275 301.156 208.762 301.91 208.095 302.55C207.442 303.19 206.669 303.69 205.775 304.05C204.882 304.396 203.909 304.57 202.855 304.57ZM202.855 303.25C203.695 303.25 204.469 303.11 205.175 302.83C205.895 302.536 206.515 302.13 207.035 301.61C207.569 301.076 207.982 300.463 208.275 299.77C208.569 299.063 208.715 298.29 208.715 297.45C208.715 296.61 208.569 295.843 208.275 295.15C207.982 294.443 207.569 293.83 207.035 293.31C206.515 292.776 205.895 292.37 205.175 292.09C204.469 291.796 203.695 291.65 202.855 291.65C202.015 291.65 201.235 291.796 200.515 292.09C199.795 292.37 199.169 292.776 198.635 293.31C198.115 293.83 197.702 294.443 197.395 295.15C197.102 295.843 196.955 296.61 196.955 297.45C196.955 298.276 197.102 299.043 197.395 299.75C197.702 300.456 198.115 301.076 198.635 301.61C199.169 302.13 199.795 302.536 200.515 302.83C201.235 303.11 202.015 303.25 202.855 303.25ZM222.34 304.57C221.287 304.57 220.307 304.396 219.4 304.05C218.507 303.69 217.727 303.19 217.06 302.55C216.407 301.896 215.894 301.143 215.52 300.29C215.16 299.423 214.98 298.476 214.98 297.45C214.98 296.423 215.16 295.483 215.52 294.63C215.894 293.763 216.407 293.01 217.06 292.37C217.727 291.716 218.507 291.216 219.4 290.87C220.294 290.51 221.274 290.33 222.34 290.33C223.394 290.33 224.367 290.51 225.26 290.87C226.154 291.216 226.927 291.71 227.58 292.35C228.247 292.99 228.76 293.743 229.12 294.61C229.494 295.476 229.68 296.423 229.68 297.45C229.68 298.476 229.494 299.423 229.12 300.29C228.76 301.156 228.247 301.91 227.58 302.55C226.927 303.19 226.154 303.69 225.26 304.05C224.367 304.396 223.394 304.57 222.34 304.57ZM222.34 303.25C223.18 303.25 223.954 303.11 224.66 302.83C225.38 302.536 226 302.13 226.52 301.61C227.054 301.076 227.467 300.463 227.76 299.77C228.054 299.063 228.2 298.29 228.2 297.45C228.2 296.61 228.054 295.843 227.76 295.15C227.467 294.443 227.054 293.83 226.52 293.31C226 292.776 225.38 292.37 224.66 292.09C223.954 291.796 223.18 291.65 222.34 291.65C221.5 291.65 220.72 291.796 220 292.09C219.28 292.37 218.654 292.776 218.12 293.31C217.6 293.83 217.187 294.443 216.88 295.15C216.587 295.843 216.44 296.61 216.44 297.45C216.44 298.276 216.587 299.043 216.88 299.75C217.187 300.456 217.6 301.076 218.12 301.61C218.654 302.13 219.28 302.536 220 302.83C220.72 303.11 221.5 303.25 222.34 303.25ZM238.23 304.45V291.73H233.31V290.45H244.63V291.73H239.71V304.45H238.23ZM253.347 304.57C252.307 304.57 251.307 304.403 250.347 304.07C249.4 303.723 248.667 303.283 248.147 302.75L248.727 301.61C249.22 302.09 249.88 302.496 250.707 302.83C251.547 303.15 252.427 303.31 253.347 303.31C254.227 303.31 254.94 303.203 255.487 302.99C256.047 302.763 256.454 302.463 256.707 302.09C256.974 301.716 257.107 301.303 257.107 300.85C257.107 300.303 256.947 299.863 256.627 299.53C256.32 299.196 255.914 298.936 255.407 298.75C254.9 298.55 254.34 298.376 253.727 298.23C253.114 298.083 252.5 297.93 251.887 297.77C251.274 297.596 250.707 297.37 250.187 297.09C249.68 296.81 249.267 296.443 248.947 295.99C248.64 295.523 248.487 294.916 248.487 294.17C248.487 293.476 248.667 292.843 249.027 292.27C249.4 291.683 249.967 291.216 250.727 290.87C251.487 290.51 252.46 290.33 253.647 290.33C254.434 290.33 255.214 290.443 255.987 290.67C256.76 290.883 257.427 291.183 257.987 291.57L257.487 292.75C256.887 292.35 256.247 292.056 255.567 291.87C254.9 291.683 254.254 291.59 253.627 291.59C252.787 291.59 252.094 291.703 251.547 291.93C251 292.156 250.594 292.463 250.327 292.85C250.074 293.223 249.947 293.65 249.947 294.13C249.947 294.676 250.1 295.116 250.407 295.45C250.727 295.783 251.14 296.043 251.647 296.23C252.167 296.416 252.734 296.583 253.347 296.73C253.96 296.876 254.567 297.036 255.167 297.21C255.78 297.383 256.34 297.61 256.847 297.89C257.367 298.156 257.78 298.516 258.087 298.97C258.407 299.423 258.567 300.016 258.567 300.75C258.567 301.43 258.38 302.063 258.007 302.65C257.634 303.223 257.06 303.69 256.287 304.05C255.527 304.396 254.547 304.57 253.347 304.57ZM267.024 304.45V291.73H262.104V290.45H273.424V291.73H268.504V304.45H267.024ZM278.496 304.45V290.45H283.736C284.923 290.45 285.943 290.643 286.796 291.03C287.649 291.403 288.303 291.95 288.756 292.67C289.223 293.376 289.456 294.236 289.456 295.25C289.456 296.236 289.223 297.09 288.756 297.81C288.303 298.516 287.649 299.063 286.796 299.45C285.943 299.823 284.923 300.01 283.736 300.01H279.316L279.976 299.33V304.45H278.496ZM288.056 304.45L284.456 299.37H286.056L289.676 304.45H288.056ZM279.976 299.45L279.316 298.75H283.696C285.096 298.75 286.156 298.443 286.876 297.83C287.609 297.216 287.976 296.356 287.976 295.25C287.976 294.13 287.609 293.263 286.876 292.65C286.156 292.036 285.096 291.73 283.696 291.73H279.316L279.976 291.03V299.45ZM293.417 304.45L299.817 290.45H301.277L307.677 304.45H306.117L300.237 291.31H300.837L294.957 304.45H293.417ZM295.937 300.71L296.377 299.51H304.517L304.957 300.71H295.937ZM312.7 304.45V290.45H317.94C319.127 290.45 320.147 290.643 321 291.03C321.854 291.403 322.507 291.95 322.96 292.67C323.427 293.376 323.66 294.236 323.66 295.25C323.66 296.236 323.427 297.09 322.96 297.81C322.507 298.516 321.854 299.063 321 299.45C320.147 299.836 319.127 300.03 317.94 300.03H313.52L314.18 299.33V304.45H312.7ZM314.18 299.45L313.52 298.73H317.9C319.3 298.73 320.36 298.43 321.08 297.83C321.814 297.216 322.18 296.356 322.18 295.25C322.18 294.13 321.814 293.263 321.08 292.65C320.36 292.036 319.3 291.73 317.9 291.73H313.52L314.18 291.03V299.45Z" fill="white"/>
<path d="M409.012 304.12C407.945 304.12 406.959 303.947 406.052 303.6C405.159 303.24 404.379 302.74 403.712 302.1C403.059 301.46 402.545 300.707 402.172 299.84C401.812 298.973 401.632 298.027 401.632 297C401.632 295.973 401.812 295.027 402.172 294.16C402.545 293.293 403.065 292.54 403.732 291.9C404.399 291.26 405.179 290.767 406.072 290.42C406.979 290.06 407.965 289.88 409.032 289.88C410.099 289.88 411.072 290.047 411.952 290.38C412.845 290.713 413.605 291.22 414.232 291.9L413.312 292.84C412.725 292.253 412.079 291.833 411.372 291.58C410.665 291.327 409.905 291.2 409.092 291.2C408.225 291.2 407.425 291.347 406.692 291.64C405.972 291.92 405.339 292.327 404.792 292.86C404.259 293.38 403.839 293.993 403.532 294.7C403.239 295.393 403.092 296.16 403.092 297C403.092 297.827 403.239 298.593 403.532 299.3C403.839 300.007 404.259 300.627 404.792 301.16C405.339 301.68 405.972 302.087 406.692 302.38C407.425 302.66 408.219 302.8 409.072 302.8C409.872 302.8 410.625 302.68 411.332 302.44C412.052 302.2 412.712 301.793 413.312 301.22L414.152 302.34C413.485 302.927 412.705 303.373 411.812 303.68C410.919 303.973 409.985 304.12 409.012 304.12ZM412.732 302.16V297H414.152V302.34L412.732 302.16ZM421.048 304V290H422.528V304H421.048ZM432.511 304V291.28H427.591V290H438.911V291.28H433.991V304H432.511Z" fill="white"/>
<path d="M46.1798 297.23H53.5798V298.51H46.1798V297.23ZM46.3398 304.45H44.8598V290.45H54.4598V291.73H46.3398V304.45ZM60.2236 304.45V290.45H61.7036V304.45H60.2236ZM75.1064 304.57C74.0397 304.57 73.053 304.396 72.1464 304.05C71.253 303.69 70.473 303.19 69.8064 302.55C69.153 301.91 68.6397 301.156 68.2664 300.29C67.9064 299.423 67.7264 298.476 67.7264 297.45C67.7264 296.423 67.9064 295.476 68.2664 294.61C68.6397 293.743 69.1597 292.99 69.8264 292.35C70.493 291.71 71.273 291.216 72.1664 290.87C73.073 290.51 74.0597 290.33 75.1264 290.33C76.193 290.33 77.1664 290.496 78.0464 290.83C78.9397 291.163 79.6997 291.67 80.3264 292.35L79.4064 293.29C78.8197 292.703 78.173 292.283 77.4664 292.03C76.7597 291.776 75.9997 291.65 75.1864 291.65C74.3197 291.65 73.5197 291.796 72.7864 292.09C72.0664 292.37 71.433 292.776 70.8864 293.31C70.353 293.83 69.933 294.443 69.6264 295.15C69.333 295.843 69.1864 296.61 69.1864 297.45C69.1864 298.276 69.333 299.043 69.6264 299.75C69.933 300.456 70.353 301.076 70.8864 301.61C71.433 302.13 72.0664 302.536 72.7864 302.83C73.5197 303.11 74.313 303.25 75.1664 303.25C75.9664 303.25 76.7197 303.13 77.4264 302.89C78.1464 302.65 78.8064 302.243 79.4064 301.67L80.2464 302.79C79.5797 303.376 78.7997 303.823 77.9064 304.13C77.013 304.423 76.0797 304.57 75.1064 304.57ZM78.8264 302.61V297.45H80.2464V302.79L78.8264 302.61ZM87.1427 304.45V290.45H88.3627L94.7627 301.37H94.1227L100.463 290.45H101.683V304.45H100.263V292.67H100.603L94.7627 302.67H94.0627L88.1827 292.67H88.5627V304.45H87.1427ZM106.712 304.45L113.112 290.45H114.572L120.972 304.45H119.412L113.532 291.31H114.132L108.252 304.45H106.712ZM109.232 300.71L109.672 299.51H117.812L118.252 300.71H109.232Z" fill="white"/>
<path d="M294.495 236.429C294.495 243.434 289.499 249.165 283.393 249.165H238.987C232.882 249.165 227.886 243.434 227.886 236.429V185.487C227.886 178.482 232.882 172.751 238.987 172.751H283.393C289.499 172.751 294.495 178.482 294.495 185.487V236.429Z" fill="#CFA55B"/>
<path d="M245.986 189.357H264.869C268.352 189.357 271.149 190.269 273.25 192.104C275.35 193.94 276.406 196.699 276.406 200.407C276.406 202.655 275.927 204.578 274.969 206.176C274.011 207.774 272.64 209.023 270.855 209.897V210.022C273.25 210.609 275.067 211.907 276.297 213.917C277.527 215.94 278.147 218.462 278.147 221.509C278.147 223.257 277.875 224.892 277.331 226.403C276.787 227.927 275.938 229.238 274.773 230.336C273.609 231.435 272.129 232.309 270.311 232.958C268.493 233.608 266.338 233.932 263.835 233.932H245.986V189.357ZM252.788 208.024H263.889C265.522 208.024 266.883 207.5 267.971 206.426C269.059 205.352 269.603 203.829 269.603 201.831C269.603 199.583 269.114 197.998 268.134 197.086C267.155 196.175 265.74 195.713 263.889 195.713H252.788V208.024ZM252.788 227.564H264.815C266.883 227.564 268.493 226.953 269.625 225.717C270.768 224.493 271.345 222.745 271.345 220.497C271.345 218.287 270.779 216.602 269.625 215.403C268.472 214.204 266.883 213.63 264.815 213.63H252.788V227.564Z" fill="white"/>
<g clip-path="url(#clip0_149_9)">
<path d="M77.5392 249.165C84.1749 249.165 89.5605 243.46 89.5605 236.43V223.694H77.5392C70.9034 223.694 65.5178 229.399 65.5178 236.43C65.5178 243.46 70.9034 249.165 77.5392 249.165Z" fill="#E7B45B"/>
<path d="M65.5178 210.958C65.5178 203.928 70.9034 198.222 77.5392 198.222H89.5605V223.694H77.5392C70.9034 223.694 65.5178 217.988 65.5178 210.958Z" fill="#A37E3D"/>
<path d="M65.5164 185.487C65.5164 178.457 70.9019 172.751 77.5377 172.751H89.559V198.222H77.5377C70.9019 198.222 65.5164 192.517 65.5164 185.487Z" fill="#EFBB5F"/>
<path d="M89.5613 172.751H101.583C108.218 172.751 113.604 178.457 113.604 185.487C113.604 192.517 108.218 198.222 101.583 198.222H89.5613V172.751Z" fill="#CFA55B"/>
<path d="M113.604 210.958C113.604 217.988 108.218 223.694 101.583 223.694C94.9468 223.694 89.5613 217.988 89.5613 210.958C89.5613 203.928 94.9468 198.222 101.583 198.222C108.218 198.222 113.604 203.928 113.604 210.958Z" fill="#8A682C"/>
</g>
<path d="M60.6692 0L65.9771 68.7726L89.8106 76.414L113.636 68.7774L118.952 0H60.6692Z" fill="#CFA55B"/>
<path d="M107.441 22.49H89.8107H79.5072L80.1733 31.1295H89.8107H106.775L104.773 57.0339L89.8107 61.8241L89.7983 61.8289L74.8446 57.0339L73.7996 43.4847H81.1266L81.672 50.5148L89.8024 53.0508L89.8107 53.046L97.9495 50.51L98.7988 39.5685H89.8107H73.4999L71.5266 14.0605H89.8107H108.091L107.441 22.49Z" fill="#FFF8F8"/>
<path d="M232.039 0L237.342 68.7726L261.156 76.414L284.961 68.7774L290.273 0H232.039Z" fill="#CFA55B"/>
<path d="M278.934 22.4897L278.264 31.1293L276.242 57.0288L261.156 61.819L261.143 61.8238L246.065 57.0288L245.012 43.4845H252.4L252.949 50.5098L261.147 53.0505L261.151 53.0458L269.362 50.505L270.481 38.7993L244.659 38.8805L243.926 30.8762L271.101 30.5084L271.65 21.9405L243.199 22.0312L242.72 14.0603H261.156H279.591L278.934 22.4897Z" fill="#FAFAFA"/>
<path d="M463.392 43.8184C460.345 43.8385 457.707 44.6934 455.494 45.9662C454.677 44.0771 453.86 42.4265 453.724 41.1938C453.571 39.7621 453.384 38.887 453.571 37.177C453.758 35.4667 454.609 33.0408 454.609 32.8419C454.592 32.6629 454.422 31.788 452.669 31.7681C450.916 31.7482 449.401 32.1658 449.231 32.7027C449.061 33.2396 448.72 34.4725 448.499 35.7451C448.193 37.6143 444.993 44.236 443.172 47.7159C442.576 46.3637 442.065 45.1706 441.963 44.2159C441.81 42.7844 441.622 41.9093 441.81 40.1994C441.997 38.4891 442.848 36.0633 442.848 35.8644C442.831 35.6855 442.661 34.8105 440.908 34.7906C439.155 34.7708 437.64 35.1883 437.47 35.7252C437.3 36.2621 437.112 37.5348 436.738 38.7676C436.38 40.0005 432.125 51.0566 431.019 53.9399C430.457 55.4114 429.964 56.5846 429.606 57.38C429.249 58.1754 429.589 57.4396 429.555 57.5192C429.249 58.1953 429.078 58.5731 429.078 58.5731V58.5932C428.84 59.0903 428.585 59.5673 428.466 59.5673C428.38 59.5673 428.21 58.235 428.5 56.4058C429.129 52.5678 430.661 46.5826 430.644 46.3639C430.644 46.2645 430.933 45.2104 429.657 44.6737C428.414 44.1368 427.972 45.0316 427.87 45.0316C427.768 45.0316 427.683 45.3498 427.683 45.3498C427.683 45.3498 429.061 38.609 425.044 38.609C422.525 38.609 419.053 41.8104 417.334 44.7335C416.245 45.4295 413.93 46.9008 411.479 48.4719C410.543 49.0685 409.573 49.7048 408.653 50.2814L408.466 50.0424C403.599 43.9775 394.595 39.6823 394.969 31.5295C395.105 28.5666 395.99 20.7518 412.262 11.2866C425.589 3.53145 436.261 5.65915 438.116 10.3918C440.755 17.1527 432.414 29.72 418.56 31.5295C413.283 32.2255 410.509 29.8393 409.811 28.9445C409.079 28.0099 408.977 27.9701 408.705 28.1491C408.262 28.4274 408.535 29.2626 408.705 29.7597C409.113 31.0125 410.815 33.2396 413.709 34.3532C416.245 35.3275 422.441 35.8644 429.93 32.484C438.321 28.686 444.874 18.1469 442.95 9.33787C440.993 0.36974 428.262 -2.57324 416.228 2.41789C409.062 5.40064 401.301 10.0537 395.718 16.1584C389.08 23.3966 388.025 29.72 388.467 32.3448C390.016 41.7106 401.062 47.8153 405.488 52.3292C405.267 52.4682 405.062 52.6074 404.875 52.7269C402.662 53.9993 394.237 59.1497 392.127 64.598C389.744 70.7624 392.501 75.1969 394.339 75.7935C400.024 77.6428 405.845 74.322 408.994 68.8536C412.126 63.3853 411.751 56.2863 410.305 53.0451L410.253 52.9257L411.99 51.7327C413.113 50.9571 414.219 50.2413 415.189 49.6246C414.645 51.3546 414.253 53.4028 414.049 56.3855C413.811 59.8855 415.036 64.4191 416.653 66.2087C417.368 66.984 418.219 67.0041 418.747 67.0041C420.619 67.0041 421.47 65.1944 422.406 63.0271C423.564 60.3824 424.585 57.3201 424.585 57.3201C424.585 57.3201 423.308 65.6122 426.798 65.6122C428.074 65.6122 429.351 63.6833 429.929 62.6891V62.709C429.929 62.709 429.963 62.6493 430.032 62.5101C430.103 62.3867 430.171 62.2608 430.236 62.1325V62.0927C430.746 61.0587 431.887 58.6924 433.589 54.7751C435.784 49.7243 437.895 43.4008 437.895 43.4008C437.895 43.4008 438.099 44.9519 438.729 47.4971C439.103 49.0086 439.92 50.6589 440.55 52.2695C440.04 53.1047 439.733 53.5822 439.733 53.5822L439.75 53.602C439.342 54.2384 438.882 54.9146 438.406 55.5905C436.67 58.0165 434.593 60.7807 434.321 61.5761C433.997 62.5105 434.065 63.2065 434.695 63.7635C435.155 64.1612 435.972 64.2405 436.84 64.1612C438.406 64.0417 439.495 63.5845 440.04 63.3059C440.891 62.948 441.861 62.4111 442.797 61.6157C444.499 60.1444 445.537 58.0565 445.435 55.2726C445.384 53.7414 444.959 52.2302 444.431 50.7985C444.584 50.5399 444.738 50.2812 444.891 50.0031C447.58 45.4094 449.656 40.3588 449.656 40.3588C449.656 40.3588 449.861 41.9099 450.49 44.4551C450.814 45.7477 451.461 47.1597 452.039 48.5516C449.52 50.9577 447.937 53.7416 447.393 55.5711C446.388 58.9515 447.171 60.4826 448.652 60.8406C449.316 60.9997 450.269 60.6417 450.984 60.2838C451.869 59.9457 452.941 59.3689 453.929 58.514C455.631 57.0425 457.265 54.9944 457.179 52.2304C457.128 50.9577 456.839 49.705 456.448 48.5119C458.592 47.4779 461.366 46.8813 464.89 47.3784C472.464 48.4125 473.962 53.9405 473.673 56.2471C473.383 58.554 471.8 59.8264 471.273 60.2241C470.745 60.6019 470.575 60.7413 470.626 61.0195C470.694 61.4373 470.932 61.4172 471.392 61.3379C472.021 61.2184 475.375 59.4488 475.511 55.1936C475.715 49.7245 471.273 43.759 463.392 43.8184V43.8184ZM404.977 66.8254C402.475 70.0268 398.952 71.2398 397.454 70.2058C395.837 69.1121 396.467 64.3994 399.548 60.9991C401.42 58.931 403.854 57.0221 405.454 55.8488C405.811 55.5903 406.356 55.2127 407.003 54.7552C407.105 54.6758 407.173 54.6359 407.173 54.6359C407.292 54.5563 407.428 54.4569 407.564 54.3575C408.705 59.2094 407.615 63.4648 404.977 66.8254V66.8254ZM423.274 52.2894C422.406 54.7751 420.568 61.1581 419.462 60.8002C418.508 60.5019 417.93 55.6699 419.274 50.8975C419.955 48.4912 421.402 45.628 422.253 44.5142C423.632 42.7246 425.129 42.128 425.504 42.8637C425.947 43.8184 423.819 50.7384 423.274 52.2894ZM438.372 60.7207C437.997 60.9396 437.657 61.0985 437.504 60.9794C437.384 60.8998 437.657 60.6016 437.657 60.6016C437.657 60.6016 439.546 58.2352 440.295 57.1416C440.72 56.5054 441.231 55.7697 441.776 54.9343V55.173C441.776 58.0362 439.427 59.9452 438.372 60.7207ZM450.014 57.6186C449.741 57.38 449.776 56.6442 450.694 54.3376C451.052 53.4229 451.869 51.8917 453.282 50.4401C453.452 51.0367 453.554 51.6131 453.537 52.1502C453.52 55.7295 451.341 57.0618 450.014 57.6186Z" fill="#CFA55B"/>
<path d="M457.126 208.07L423.694 174.453C423.237 173.992 422.693 173.627 422.095 173.378C421.496 173.128 420.855 173 420.208 173C419.56 173 418.919 173.128 418.32 173.378C417.722 173.627 417.179 173.992 416.721 174.453L409.779 181.435L418.585 190.29C419.62 189.936 420.733 189.88 421.798 190.13C422.863 190.379 423.837 190.924 424.61 191.701C425.387 192.484 425.93 193.471 426.176 194.548C426.422 195.626 426.362 196.752 426.002 197.797L434.487 206.332C436.541 205.621 438.91 206.081 440.55 207.733C441.095 208.281 441.527 208.931 441.822 209.647C442.117 210.363 442.269 211.13 442.269 211.905C442.269 212.68 442.117 213.447 441.822 214.163C441.527 214.879 441.095 215.529 440.55 216.077C439.591 217.042 438.329 217.644 436.979 217.778C435.629 217.913 434.274 217.574 433.145 216.817C432.016 216.06 431.182 214.933 430.787 213.628C430.391 212.323 430.457 210.921 430.974 209.659L423.059 201.7L423.058 222.646C423.632 222.931 424.156 223.308 424.61 223.762C425.155 224.309 425.587 224.96 425.882 225.676C426.177 226.392 426.329 227.159 426.329 227.934C426.329 228.709 426.177 229.477 425.882 230.193C425.587 230.909 425.155 231.559 424.61 232.107C422.317 234.413 418.602 234.413 416.312 232.107C415.629 231.42 415.124 230.574 414.844 229.643C414.564 228.712 414.517 227.727 414.707 226.773C414.897 225.82 415.318 224.929 415.933 224.179C416.549 223.429 417.338 222.843 418.233 222.474V201.334C417.513 201.038 416.86 200.6 416.312 200.046C414.576 198.302 414.159 195.739 415.048 193.595L406.368 184.864L383.445 207.914C382.987 208.375 382.623 208.922 382.375 209.524C382.128 210.125 382 210.77 382 211.422C382 212.073 382.128 212.718 382.375 213.32C382.623 213.922 382.987 214.469 383.445 214.929L416.877 248.548C417.802 249.478 419.056 250 420.364 250C421.671 250 422.926 249.478 423.85 248.548L457.126 215.086C458.051 214.156 458.571 212.894 458.571 211.578C458.571 210.263 458.051 209.001 457.126 208.07Z" fill="#CFA55B"/>
<defs>
<clipPath id="clip0_149_9">
<rect width="48.095" height="76.414" fill="white" transform="translate(65.5137 172.751)"/>
</clipPath>
</defs>
</svg>
