<svg width="283" height="189" viewBox="0 0 283 189" fill="none" xmlns="http://www.w3.org/2000/svg">
<path d="M24.2131 65.8H25.3811V77H24.2131V65.8ZM17.2051 77H16.0211V65.8H17.2051V77ZM24.3251 71.832H17.0771V70.792H24.3251V71.832ZM33.3788 77V66.824H29.4428V65.8H38.4988V66.824H34.5628V77H33.3788ZM42.5564 77V65.8H43.5324L48.6524 74.536H48.1404L53.2124 65.8H54.1884V77H53.0524V67.576H53.3244L48.6524 75.576H48.0924L43.3884 67.576H43.6924V77H42.5564ZM60.0037 77V65.8H61.1877V75.976H67.4597V77H60.0037ZM74.1356 77.096C73.3356 77.096 72.573 76.968 71.8476 76.712C71.1223 76.4453 70.5463 76.0933 70.1196 75.656L70.6796 74.744C71.0316 75.1173 71.5116 75.4267 72.1196 75.672C72.7383 75.9173 73.405 76.04 74.1196 76.04C75.069 76.04 75.789 75.832 76.2796 75.416C76.781 74.9893 77.0316 74.4347 77.0316 73.752C77.0316 73.272 76.9143 72.8613 76.6796 72.52C76.4556 72.168 76.0716 71.896 75.5276 71.704C74.9836 71.512 74.237 71.416 73.2876 71.416H70.9036L71.4796 65.8H77.6076V66.824H71.9436L72.5356 66.264L72.0396 70.968L71.4476 70.392H73.5436C74.6743 70.392 75.581 70.5307 76.2636 70.808C76.9463 71.0853 77.437 71.4747 77.7356 71.976C78.045 72.4667 78.1996 73.0427 78.1996 73.704C78.1996 74.3333 78.0503 74.9093 77.7516 75.432C77.453 75.944 77.005 76.3493 76.4076 76.648C75.8103 76.9467 75.053 77.096 74.1356 77.096Z" fill="white"/>
<path d="M127.921 77.096C127.079 77.096 126.3 76.9573 125.585 76.68C124.871 76.392 124.252 75.992 123.729 75.48C123.207 74.968 122.796 74.3653 122.497 73.672C122.209 72.9787 122.065 72.2213 122.065 71.4C122.065 70.5787 122.209 69.8213 122.497 69.128C122.796 68.4347 123.207 67.832 123.729 67.32C124.263 66.808 124.887 66.4133 125.601 66.136C126.316 65.848 127.095 65.704 127.937 65.704C128.748 65.704 129.511 65.8427 130.225 66.12C130.94 66.3867 131.543 66.792 132.033 67.336L131.281 68.088C130.823 67.6187 130.316 67.2827 129.761 67.08C129.207 66.8667 128.609 66.76 127.969 66.76C127.297 66.76 126.673 66.8773 126.097 67.112C125.521 67.336 125.02 67.6613 124.593 68.088C124.167 68.504 123.831 68.9947 123.585 69.56C123.351 70.1147 123.233 70.728 123.233 71.4C123.233 72.072 123.351 72.6907 123.585 73.256C123.831 73.8107 124.167 74.3013 124.593 74.728C125.02 75.144 125.521 75.4693 126.097 75.704C126.673 75.928 127.297 76.04 127.969 76.04C128.609 76.04 129.207 75.9333 129.761 75.72C130.316 75.5067 130.823 75.1653 131.281 74.696L132.033 75.448C131.543 75.992 130.94 76.4027 130.225 76.68C129.511 76.9573 128.743 77.096 127.921 77.096ZM139.78 77.096C138.948 77.096 138.148 76.9627 137.38 76.696C136.623 76.4187 136.036 76.0667 135.62 75.64L136.084 74.728C136.479 75.112 137.007 75.4373 137.668 75.704C138.34 75.96 139.044 76.088 139.78 76.088C140.484 76.088 141.055 76.0027 141.492 75.832C141.94 75.6507 142.265 75.4107 142.468 75.112C142.681 74.8133 142.788 74.4827 142.788 74.12C142.788 73.6827 142.66 73.3307 142.404 73.064C142.159 72.7973 141.833 72.5893 141.428 72.44C141.023 72.28 140.575 72.1413 140.084 72.024C139.593 71.9067 139.103 71.784 138.612 71.656C138.121 71.5173 137.668 71.336 137.252 71.112C136.847 70.888 136.516 70.5947 136.26 70.232C136.015 69.8587 135.892 69.3733 135.892 68.776C135.892 68.2213 136.036 67.7147 136.324 67.256C136.623 66.7867 137.076 66.4133 137.684 66.136C138.292 65.848 139.071 65.704 140.02 65.704C140.649 65.704 141.273 65.7947 141.892 65.976C142.511 66.1467 143.044 66.3867 143.492 66.696L143.092 67.64C142.612 67.32 142.1 67.0853 141.556 66.936C141.023 66.7867 140.505 66.712 140.004 66.712C139.332 66.712 138.777 66.8027 138.34 66.984C137.903 67.1653 137.577 67.4107 137.364 67.72C137.161 68.0187 137.06 68.36 137.06 68.744C137.06 69.1813 137.183 69.5333 137.428 69.8C137.684 70.0667 138.015 70.2747 138.42 70.424C138.836 70.5733 139.289 70.7067 139.78 70.824C140.271 70.9413 140.756 71.0693 141.236 71.208C141.727 71.3467 142.175 71.528 142.58 71.752C142.996 71.9653 143.327 72.2533 143.572 72.616C143.828 72.9787 143.956 73.4533 143.956 74.04C143.956 74.584 143.807 75.0907 143.508 75.56C143.209 76.0187 142.751 76.392 142.132 76.68C141.524 76.9573 140.74 77.096 139.78 77.096ZM151.79 77.096C150.958 77.096 150.158 76.9627 149.39 76.696C148.633 76.4187 148.046 76.0667 147.63 75.64L148.094 74.728C148.489 75.112 149.017 75.4373 149.678 75.704C150.35 75.96 151.054 76.088 151.79 76.088C152.494 76.088 153.065 76.0027 153.502 75.832C153.95 75.6507 154.275 75.4107 154.478 75.112C154.691 74.8133 154.798 74.4827 154.798 74.12C154.798 73.6827 154.67 73.3307 154.414 73.064C154.169 72.7973 153.843 72.5893 153.438 72.44C153.033 72.28 152.585 72.1413 152.094 72.024C151.603 71.9067 151.113 71.784 150.622 71.656C150.131 71.5173 149.678 71.336 149.262 71.112C148.857 70.888 148.526 70.5947 148.27 70.232C148.025 69.8587 147.902 69.3733 147.902 68.776C147.902 68.2213 148.046 67.7147 148.334 67.256C148.633 66.7867 149.086 66.4133 149.694 66.136C150.302 65.848 151.081 65.704 152.03 65.704C152.659 65.704 153.283 65.7947 153.902 65.976C154.521 66.1467 155.054 66.3867 155.502 66.696L155.102 67.64C154.622 67.32 154.11 67.0853 153.566 66.936C153.033 66.7867 152.515 66.712 152.014 66.712C151.342 66.712 150.787 66.8027 150.35 66.984C149.913 67.1653 149.587 67.4107 149.374 67.72C149.171 68.0187 149.07 68.36 149.07 68.744C149.07 69.1813 149.193 69.5333 149.438 69.8C149.694 70.0667 150.025 70.2747 150.43 70.424C150.846 70.5733 151.299 70.7067 151.79 70.824C152.281 70.9413 152.766 71.0693 153.246 71.208C153.737 71.3467 154.185 71.528 154.59 71.752C155.006 71.9653 155.337 72.2533 155.582 72.616C155.838 72.9787 155.966 73.4533 155.966 74.04C155.966 74.584 155.817 75.0907 155.518 75.56C155.219 76.0187 154.761 76.392 154.142 76.68C153.534 76.9573 152.75 77.096 151.79 77.096ZM162.939 77.096C162.128 77.096 161.36 76.968 160.635 76.712C159.92 76.4453 159.344 76.0933 158.907 75.656L159.467 74.744C159.829 75.1173 160.315 75.4267 160.923 75.672C161.541 75.9173 162.213 76.04 162.939 76.04C163.867 76.04 164.576 75.8373 165.067 75.432C165.568 75.0267 165.819 74.4827 165.819 73.8C165.819 73.1173 165.573 72.5733 165.083 72.168C164.603 71.7627 163.84 71.56 162.795 71.56H161.995V70.712L165.451 66.376L165.611 66.824H159.371V65.8H166.571V66.616L163.115 70.952L162.555 70.584H162.987C164.331 70.584 165.333 70.8827 165.995 71.48C166.667 72.0773 167.003 72.8453 167.003 73.784C167.003 74.4133 166.853 74.9787 166.555 75.48C166.256 75.9813 165.803 76.376 165.195 76.664C164.597 76.952 163.845 77.096 162.939 77.096Z" fill="white"/>
<path d="M223.676 77.096C222.844 77.096 222.044 76.9627 221.276 76.696C220.519 76.4187 219.932 76.0667 219.516 75.64L219.98 74.728C220.375 75.112 220.903 75.4373 221.564 75.704C222.236 75.96 222.94 76.088 223.676 76.088C224.38 76.088 224.951 76.0027 225.388 75.832C225.836 75.6507 226.162 75.4107 226.364 75.112C226.578 74.8133 226.684 74.4827 226.684 74.12C226.684 73.6827 226.556 73.3307 226.3 73.064C226.055 72.7973 225.73 72.5893 225.324 72.44C224.919 72.28 224.471 72.1413 223.98 72.024C223.49 71.9067 222.999 71.784 222.508 71.656C222.018 71.5173 221.564 71.336 221.148 71.112C220.743 70.888 220.412 70.5947 220.156 70.232C219.911 69.8587 219.788 69.3733 219.788 68.776C219.788 68.2213 219.932 67.7147 220.22 67.256C220.519 66.7867 220.972 66.4133 221.58 66.136C222.188 65.848 222.967 65.704 223.916 65.704C224.546 65.704 225.17 65.7947 225.788 65.976C226.407 66.1467 226.94 66.3867 227.388 66.696L226.988 67.64C226.508 67.32 225.996 67.0853 225.452 66.936C224.919 66.7867 224.402 66.712 223.9 66.712C223.228 66.712 222.674 66.8027 222.236 66.984C221.799 67.1653 221.474 67.4107 221.26 67.72C221.058 68.0187 220.956 68.36 220.956 68.744C220.956 69.1813 221.079 69.5333 221.324 69.8C221.58 70.0667 221.911 70.2747 222.316 70.424C222.732 70.5733 223.186 70.7067 223.676 70.824C224.167 70.9413 224.652 71.0693 225.132 71.208C225.623 71.3467 226.071 71.528 226.476 71.752C226.892 71.9653 227.223 72.2533 227.468 72.616C227.724 72.9787 227.852 73.4533 227.852 74.04C227.852 74.584 227.703 75.0907 227.404 75.56C227.106 76.0187 226.647 76.392 226.028 76.68C225.42 76.9573 224.636 77.096 223.676 77.096ZM230.806 77L235.926 65.8H237.094L242.214 77H240.966L236.262 66.488H236.742L232.038 77H230.806ZM232.822 74.008L233.174 73.048H239.686L240.038 74.008H232.822ZM249.321 77.096C248.489 77.096 247.689 76.9627 246.921 76.696C246.164 76.4187 245.577 76.0667 245.161 75.64L245.625 74.728C246.02 75.112 246.548 75.4373 247.209 75.704C247.881 75.96 248.585 76.088 249.321 76.088C250.025 76.088 250.596 76.0027 251.033 75.832C251.481 75.6507 251.806 75.4107 252.009 75.112C252.222 74.8133 252.329 74.4827 252.329 74.12C252.329 73.6827 252.201 73.3307 251.945 73.064C251.7 72.7973 251.374 72.5893 250.969 72.44C250.564 72.28 250.116 72.1413 249.625 72.024C249.134 71.9067 248.644 71.784 248.153 71.656C247.662 71.5173 247.209 71.336 246.793 71.112C246.388 70.888 246.057 70.5947 245.801 70.232C245.556 69.8587 245.433 69.3733 245.433 68.776C245.433 68.2213 245.577 67.7147 245.865 67.256C246.164 66.7867 246.617 66.4133 247.225 66.136C247.833 65.848 248.612 65.704 249.561 65.704C250.19 65.704 250.814 65.7947 251.433 65.976C252.052 66.1467 252.585 66.3867 253.033 66.696L252.633 67.64C252.153 67.32 251.641 67.0853 251.097 66.936C250.564 66.7867 250.046 66.712 249.545 66.712C248.873 66.712 248.318 66.8027 247.881 66.984C247.444 67.1653 247.118 67.4107 246.905 67.72C246.702 68.0187 246.601 68.36 246.601 68.744C246.601 69.1813 246.724 69.5333 246.969 69.8C247.225 70.0667 247.556 70.2747 247.961 70.424C248.377 70.5733 248.83 70.7067 249.321 70.824C249.812 70.9413 250.297 71.0693 250.777 71.208C251.268 71.3467 251.716 71.528 252.121 71.752C252.537 71.9653 252.868 72.2533 253.113 72.616C253.369 72.9787 253.497 73.4533 253.497 74.04C253.497 74.584 253.348 75.0907 253.049 75.56C252.75 76.0187 252.292 76.392 251.673 76.68C251.065 76.9573 250.281 77.096 249.321 77.096ZM261.331 77.096C260.499 77.096 259.699 76.9627 258.931 76.696C258.174 76.4187 257.587 76.0667 257.171 75.64L257.635 74.728C258.03 75.112 258.558 75.4373 259.219 75.704C259.891 75.96 260.595 76.088 261.331 76.088C262.035 76.088 262.606 76.0027 263.043 75.832C263.491 75.6507 263.816 75.4107 264.019 75.112C264.232 74.8133 264.339 74.4827 264.339 74.12C264.339 73.6827 264.211 73.3307 263.955 73.064C263.71 72.7973 263.384 72.5893 262.979 72.44C262.574 72.28 262.126 72.1413 261.635 72.024C261.144 71.9067 260.654 71.784 260.163 71.656C259.672 71.5173 259.219 71.336 258.803 71.112C258.398 70.888 258.067 70.5947 257.811 70.232C257.566 69.8587 257.443 69.3733 257.443 68.776C257.443 68.2213 257.587 67.7147 257.875 67.256C258.174 66.7867 258.627 66.4133 259.235 66.136C259.843 65.848 260.622 65.704 261.571 65.704C262.2 65.704 262.824 65.7947 263.443 65.976C264.062 66.1467 264.595 66.3867 265.043 66.696L264.643 67.64C264.163 67.32 263.651 67.0853 263.107 66.936C262.574 66.7867 262.056 66.712 261.555 66.712C260.883 66.712 260.328 66.8027 259.891 66.984C259.454 67.1653 259.128 67.4107 258.915 67.72C258.712 68.0187 258.611 68.36 258.611 68.744C258.611 69.1813 258.734 69.5333 258.979 69.8C259.235 70.0667 259.566 70.2747 259.971 70.424C260.387 70.5733 260.84 70.7067 261.331 70.824C261.822 70.9413 262.307 71.0693 262.787 71.208C263.278 71.3467 263.726 71.528 264.131 71.752C264.547 71.9653 264.878 72.2533 265.123 72.616C265.379 72.9787 265.507 73.4533 265.507 74.04C265.507 74.584 265.358 75.0907 265.059 75.56C264.76 76.0187 264.302 76.392 263.683 76.68C263.075 76.9573 262.291 77.096 261.331 77.096Z" fill="white"/>
<path d="M106.826 176V164.8H111.658C112.906 164.8 113.871 165.051 114.554 165.552C115.247 166.053 115.594 166.763 115.594 167.68C115.594 168.288 115.45 168.8 115.162 169.216C114.884 169.632 114.5 169.947 114.01 170.16C113.53 170.373 113.002 170.48 112.426 170.48L112.698 170.096C113.412 170.096 114.026 170.208 114.538 170.432C115.06 170.645 115.466 170.971 115.754 171.408C116.042 171.835 116.186 172.368 116.186 173.008C116.186 173.957 115.834 174.693 115.13 175.216C114.436 175.739 113.386 176 111.978 176H106.826ZM108.01 175.024H111.962C112.943 175.024 113.695 174.859 114.218 174.528C114.74 174.187 115.002 173.648 115.002 172.912C115.002 172.187 114.74 171.659 114.218 171.328C113.695 170.987 112.943 170.816 111.962 170.816H107.882V169.84H111.578C112.474 169.84 113.167 169.669 113.658 169.328C114.159 168.987 114.41 168.48 114.41 167.808C114.41 167.125 114.159 166.619 113.658 166.288C113.167 165.947 112.474 165.776 111.578 165.776H108.01V175.024ZM120.926 176.08C120.692 176.08 120.489 175.995 120.318 175.824C120.158 175.653 120.078 175.445 120.078 175.2C120.078 174.944 120.158 174.736 120.318 174.576C120.489 174.416 120.692 174.336 120.926 174.336C121.161 174.336 121.358 174.416 121.518 174.576C121.689 174.736 121.774 174.944 121.774 175.2C121.774 175.445 121.689 175.653 121.518 175.824C121.358 175.995 121.161 176.08 120.926 176.08ZM129.855 176.096C129.023 176.096 128.223 175.963 127.455 175.696C126.698 175.419 126.111 175.067 125.695 174.64L126.159 173.728C126.554 174.112 127.082 174.437 127.743 174.704C128.415 174.96 129.119 175.088 129.855 175.088C130.559 175.088 131.13 175.003 131.567 174.832C132.015 174.651 132.341 174.411 132.543 174.112C132.757 173.813 132.863 173.483 132.863 173.12C132.863 172.683 132.735 172.331 132.479 172.064C132.234 171.797 131.909 171.589 131.503 171.44C131.098 171.28 130.65 171.141 130.159 171.024C129.669 170.907 129.178 170.784 128.687 170.656C128.197 170.517 127.743 170.336 127.327 170.112C126.922 169.888 126.591 169.595 126.335 169.232C126.09 168.859 125.967 168.373 125.967 167.776C125.967 167.221 126.111 166.715 126.399 166.256C126.698 165.787 127.151 165.413 127.759 165.136C128.367 164.848 129.146 164.704 130.095 164.704C130.725 164.704 131.349 164.795 131.967 164.976C132.586 165.147 133.119 165.387 133.567 165.696L133.167 166.64C132.687 166.32 132.175 166.085 131.631 165.936C131.098 165.787 130.581 165.712 130.079 165.712C129.407 165.712 128.853 165.803 128.415 165.984C127.978 166.165 127.653 166.411 127.439 166.72C127.237 167.019 127.135 167.36 127.135 167.744C127.135 168.181 127.258 168.533 127.503 168.8C127.759 169.067 128.09 169.275 128.495 169.424C128.911 169.573 129.365 169.707 129.855 169.824C130.346 169.941 130.831 170.069 131.311 170.208C131.802 170.347 132.25 170.528 132.655 170.752C133.071 170.965 133.402 171.253 133.647 171.616C133.903 171.979 134.031 172.453 134.031 173.04C134.031 173.584 133.882 174.091 133.583 174.56C133.285 175.019 132.826 175.392 132.207 175.68C131.599 175.957 130.815 176.096 129.855 176.096ZM140.797 176V165.824H136.861V164.8H145.917V165.824H141.981V176H140.797ZM149.974 176V164.8H154.166C155.116 164.8 155.932 164.955 156.614 165.264C157.297 165.563 157.82 166 158.182 166.576C158.556 167.141 158.742 167.829 158.742 168.64C158.742 169.429 158.556 170.112 158.182 170.688C157.82 171.253 157.297 171.691 156.614 172C155.932 172.299 155.116 172.448 154.166 172.448H150.63L151.158 171.904V176H149.974ZM157.622 176L154.742 171.936H156.022L158.918 176H157.622ZM151.158 172L150.63 171.44H154.134C155.254 171.44 156.102 171.195 156.678 170.704C157.265 170.213 157.558 169.525 157.558 168.64C157.558 167.744 157.265 167.051 156.678 166.56C156.102 166.069 155.254 165.824 154.134 165.824H150.63L151.158 165.264V172ZM161.911 176L167.031 164.8H168.199L173.319 176H172.071L167.367 165.488H167.847L163.143 176H161.911ZM163.927 173.008L164.279 172.048H170.791L171.143 173.008H163.927ZM177.338 176V164.8H181.53C182.479 164.8 183.295 164.955 183.978 165.264C184.661 165.563 185.183 166 185.546 166.576C185.919 167.141 186.106 167.829 186.106 168.64C186.106 169.429 185.919 170.112 185.546 170.688C185.183 171.253 184.661 171.691 183.978 172C183.295 172.309 182.479 172.464 181.53 172.464H177.994L178.522 171.904V176H177.338ZM178.522 172L177.994 171.424H181.498C182.618 171.424 183.466 171.184 184.042 170.704C184.629 170.213 184.922 169.525 184.922 168.64C184.922 167.744 184.629 167.051 184.042 166.56C183.466 166.069 182.618 165.824 181.498 165.824H177.994L178.522 165.264V172Z" fill="white"/>
<path d="M227.339 176.096C226.485 176.096 225.696 175.957 224.971 175.68C224.256 175.392 223.632 174.992 223.099 174.48C222.576 173.968 222.165 173.365 221.867 172.672C221.579 171.979 221.435 171.221 221.435 170.4C221.435 169.579 221.579 168.821 221.867 168.128C222.165 167.435 222.581 166.832 223.115 166.32C223.648 165.808 224.272 165.413 224.987 165.136C225.712 164.848 226.501 164.704 227.355 164.704C228.208 164.704 228.987 164.837 229.691 165.104C230.405 165.371 231.013 165.776 231.515 166.32L230.779 167.072C230.309 166.603 229.792 166.267 229.227 166.064C228.661 165.861 228.053 165.76 227.403 165.76C226.709 165.76 226.069 165.877 225.483 166.112C224.907 166.336 224.4 166.661 223.963 167.088C223.536 167.504 223.2 167.995 222.955 168.56C222.72 169.115 222.603 169.728 222.603 170.4C222.603 171.061 222.72 171.675 222.955 172.24C223.2 172.805 223.536 173.301 223.963 173.728C224.4 174.144 224.907 174.469 225.483 174.704C226.069 174.928 226.704 175.04 227.387 175.04C228.027 175.04 228.629 174.944 229.195 174.752C229.771 174.56 230.299 174.235 230.779 173.776L231.451 174.672C230.917 175.141 230.293 175.499 229.579 175.744C228.864 175.979 228.117 176.096 227.339 176.096ZM230.315 174.528V170.4H231.451V174.672L230.315 174.528ZM236.968 176V164.8H238.152V176H236.968ZM246.138 176V165.824H242.202V164.8H251.258V165.824H247.322V176H246.138Z" fill="white"/>
<path d="M18.4729 170.224H24.3929V171.248H18.4729V170.224ZM18.6009 176H17.4169V164.8H25.0969V165.824H18.6009V176ZM29.708 176V164.8H30.892V176H29.708ZM41.6142 176.096C40.7608 176.096 39.9715 175.957 39.2462 175.68C38.5315 175.392 37.9075 174.992 37.3742 174.48C36.8515 173.968 36.4408 173.365 36.1422 172.672C35.8542 171.979 35.7102 171.221 35.7102 170.4C35.7102 169.579 35.8542 168.821 36.1422 168.128C36.4408 167.435 36.8568 166.832 37.3902 166.32C37.9235 165.808 38.5475 165.413 39.2622 165.136C39.9875 164.848 40.7768 164.704 41.6302 164.704C42.4835 164.704 43.2622 164.837 43.9662 165.104C44.6808 165.371 45.2888 165.776 45.7902 166.32L45.0542 167.072C44.5848 166.603 44.0675 166.267 43.5022 166.064C42.9368 165.861 42.3288 165.76 41.6782 165.76C40.9848 165.76 40.3448 165.877 39.7582 166.112C39.1822 166.336 38.6755 166.661 38.2382 167.088C37.8115 167.504 37.4755 167.995 37.2302 168.56C36.9955 169.115 36.8782 169.728 36.8782 170.4C36.8782 171.061 36.9955 171.675 37.2302 172.24C37.4755 172.805 37.8115 173.301 38.2382 173.728C38.6755 174.144 39.1822 174.469 39.7582 174.704C40.3448 174.928 40.9795 175.04 41.6622 175.04C42.3022 175.04 42.9048 174.944 43.4702 174.752C44.0462 174.56 44.5742 174.235 45.0542 173.776L45.7262 174.672C45.1928 175.141 44.5688 175.499 43.8542 175.744C43.1395 175.979 42.3928 176.096 41.6142 176.096ZM44.5902 174.528V170.4H45.7262V174.672L44.5902 174.528ZM51.2432 176V164.8H52.2192L57.3392 173.536H56.8272L61.8992 164.8H62.8752V176H61.7392V166.576H62.0112L57.3392 174.576H56.7792L52.0752 166.576H52.3792V176H51.2432ZM66.8986 176L72.0186 164.8H73.1866L78.3066 176H77.0586L72.3546 165.488H72.8346L68.1306 176H66.8986ZM68.9146 173.008L69.2666 172.048H75.7786L76.1306 173.008H68.9146Z" fill="white"/>
<path d="M164.257 135.752C164.257 139.774 161.389 143.065 157.883 143.065H132.386C128.88 143.065 126.012 139.774 126.012 135.752V106.502C126.012 102.48 128.88 99.1896 132.386 99.1896H157.883C161.389 99.1896 164.257 102.48 164.257 106.502V135.752Z" fill="#CFA55B"/>
<path d="M136.404 108.725H147.247C149.247 108.725 150.853 109.248 152.059 110.302C153.265 111.356 153.871 112.94 153.871 115.069C153.871 116.36 153.596 117.464 153.046 118.381C152.496 119.299 151.709 120.016 150.684 120.518V120.59C152.059 120.926 153.102 121.672 153.808 122.826C154.515 123.988 154.871 125.436 154.871 127.185C154.871 128.189 154.715 129.128 154.402 129.995C154.09 130.87 153.602 131.623 152.934 132.254C152.265 132.885 151.415 133.386 150.371 133.759C149.328 134.132 148.09 134.318 146.653 134.318H136.404V108.725ZM140.31 119.442H146.684C147.622 119.442 148.403 119.141 149.028 118.525C149.653 117.908 149.965 117.034 149.965 115.887C149.965 114.596 149.684 113.686 149.122 113.162C148.559 112.639 147.747 112.374 146.684 112.374H140.31V119.442ZM140.31 130.662H147.216C148.403 130.662 149.328 130.311 149.978 129.601C150.634 128.899 150.965 127.895 150.965 126.604C150.965 125.336 150.64 124.368 149.978 123.679C149.315 122.991 148.403 122.661 147.216 122.661H140.31V130.662Z" fill="white"/>
<g clip-path="url(#clip0_160_62)">
<path d="M39.6864 143.065C43.4965 143.065 46.5888 139.789 46.5888 135.752V128.44H39.6864C35.8763 128.44 32.7841 131.716 32.7841 135.752C32.7841 139.789 35.8763 143.065 39.6864 143.065Z" fill="#E7B45B"/>
<path d="M32.7841 121.127C32.7841 117.091 35.8763 113.815 39.6864 113.815H46.5888V128.44H39.6864C35.8763 128.44 32.7841 125.164 32.7841 121.127Z" fill="#A37E3D"/>
<path d="M32.7833 106.502C32.7833 102.466 35.8756 99.1896 39.6857 99.1896H46.5881V113.815H39.6857C35.8756 113.815 32.7833 110.539 32.7833 106.502Z" fill="#EFBB5F"/>
<path d="M46.5892 99.1896H53.4916C57.3017 99.1896 60.3939 102.466 60.3939 106.502C60.3939 110.539 57.3017 113.815 53.4916 113.815H46.5892V99.1896Z" fill="#CFA55B"/>
<path d="M60.3939 121.127C60.3939 125.164 57.3017 128.44 53.4915 128.44C49.6814 128.44 46.5892 125.164 46.5892 121.127C46.5892 117.091 49.6814 113.815 53.4915 113.815C57.3017 113.815 60.3939 117.091 60.3939 121.127Z" fill="#8A682C"/>
</g>
<path d="M30 0L33.0477 39.4876L46.7323 43.8752L60.4122 39.4904L63.4646 0H30Z" fill="#CFA55B"/>
<path d="M56.8554 12.9132H46.7323H40.8163L41.1987 17.8739H46.7323H56.4729L55.3232 32.7475L46.7323 35.498L46.7252 35.5007L38.1391 32.7475L37.5391 24.9679H41.7461L42.0592 29.0044L46.7276 30.4605L46.7323 30.4578L51.4054 29.0017L51.8931 22.7193H46.7323H37.367L36.234 8.07324H46.7323H57.2283L56.8554 12.9132Z" fill="#FFF8F8"/>
<path d="M128.396 0L131.441 39.4876L145.115 43.8752L158.783 39.4904L161.833 0H128.396Z" fill="#CFA55B"/>
<path d="M155.322 12.9131L154.938 17.8737L153.777 32.7447L145.115 35.4951L145.107 35.4978L136.45 32.7447L135.845 24.9678H140.087L140.402 29.0016L145.11 30.4604L145.112 30.4577L149.827 28.9988L150.469 22.2777L135.642 22.3243L135.222 17.7284L150.825 17.5172L151.14 12.5977L134.804 12.6498L134.529 8.07312H145.115H155.7L155.322 12.9131Z" fill="#FAFAFA"/>
<path d="M261.234 25.1595C259.485 25.1711 257.97 25.6619 256.7 26.3927C256.23 25.3081 255.761 24.3603 255.683 23.6525C255.595 22.8305 255.488 22.328 255.595 21.3462C255.703 20.3642 256.191 18.9712 256.191 18.8571C256.181 18.7543 256.084 18.2519 255.077 18.2405C254.071 18.2291 253.201 18.4689 253.103 18.7771C253.005 19.0854 252.81 19.7933 252.683 20.524C252.507 21.5973 250.67 25.3993 249.624 27.3974C249.282 26.621 248.989 25.9359 248.93 25.3878C248.842 24.5658 248.735 24.0633 248.842 23.0815C248.95 22.0995 249.438 20.7067 249.438 20.5925C249.429 20.4898 249.331 19.9874 248.324 19.976C247.318 19.9646 246.448 20.2043 246.35 20.5126C246.252 20.8209 246.145 21.5516 245.93 22.2595C245.725 22.9674 243.281 29.3155 242.646 30.971C242.324 31.8159 242.04 32.4896 241.835 32.9463C241.63 33.403 241.825 32.9805 241.806 33.0262C241.63 33.4144 241.532 33.6313 241.532 33.6313V33.6428C241.395 33.9283 241.249 34.2022 241.18 34.2022C241.131 34.2022 241.034 33.4372 241.2 32.3869C241.561 30.1832 242.441 26.7467 242.431 26.6211C242.431 26.564 242.597 25.9588 241.864 25.6506C241.151 25.3423 240.897 25.8561 240.838 25.8561C240.779 25.8561 240.731 26.0388 240.731 26.0388C240.731 26.0388 241.522 22.1684 239.216 22.1684C237.769 22.1684 235.776 24.0066 234.789 25.685C234.163 26.0846 232.834 26.9294 231.427 27.8314C230.889 28.174 230.332 28.5393 229.805 28.8704L229.697 28.7332C226.902 25.2509 221.732 22.7847 221.947 18.1035C222.025 16.4023 222.534 11.9152 231.877 6.4805C239.529 2.02768 245.656 3.24935 246.721 5.96671C248.236 9.84866 243.448 17.0645 235.493 18.1035C232.463 18.5031 230.87 17.133 230.469 16.6192C230.049 16.0826 229.99 16.0598 229.834 16.1625C229.58 16.3224 229.736 16.8019 229.834 17.0874C230.069 17.8067 231.046 19.0854 232.707 19.7248C234.163 20.2843 237.721 20.5925 242.021 18.6516C246.839 16.4708 250.601 10.4195 249.497 5.36159C248.373 0.212296 241.063 -1.47749 234.154 1.3883C230.039 3.10092 225.583 5.77262 222.377 9.27779C218.566 13.4338 217.96 17.0645 218.214 18.5716C219.103 23.9493 225.446 27.4544 227.987 30.0462C227.86 30.126 227.743 30.2059 227.635 30.2746C226.365 31.0052 221.527 33.9624 220.315 37.0907C218.947 40.6301 220.53 43.1763 221.586 43.5189C224.85 44.5807 228.192 42.674 230 39.5342C231.798 36.3943 231.583 32.3183 230.753 30.4572L230.723 30.3887L231.72 29.7037C232.365 29.2584 233 28.8474 233.557 28.4933C233.245 29.4866 233.02 30.6627 232.903 32.3753C232.766 34.3849 233.469 36.9879 234.398 38.0155C234.808 38.4607 235.297 38.4722 235.6 38.4722C236.675 38.4722 237.164 37.4331 237.701 36.1887C238.366 34.6702 238.952 32.9119 238.952 32.9119C238.952 32.9119 238.219 37.673 240.222 37.673C240.955 37.673 241.688 36.5655 242.021 35.9946V36.006C242.021 36.006 242.04 35.9718 242.079 35.8919C242.12 35.821 242.159 35.7487 242.197 35.675V35.6522C242.49 35.0585 243.145 33.6998 244.122 31.4506C245.382 28.5505 246.594 24.9198 246.594 24.9198C246.594 24.9198 246.712 25.8103 247.073 27.2718C247.288 28.1396 247.757 29.0871 248.119 30.012C247.826 30.4915 247.65 30.7656 247.65 30.7656L247.66 30.7771C247.425 31.1424 247.161 31.5307 246.888 31.9188C245.891 33.3117 244.698 34.8989 244.542 35.3556C244.356 35.8921 244.395 36.2917 244.757 36.6115C245.021 36.8399 245.49 36.8854 245.988 36.8399C246.888 36.7712 247.513 36.5088 247.826 36.3488C248.314 36.1433 248.871 35.835 249.409 35.3783C250.386 34.5335 250.982 33.3347 250.924 31.7362C250.894 30.8571 250.65 29.9894 250.347 29.1673C250.435 29.0189 250.523 28.8703 250.611 28.7106C252.155 26.073 253.347 23.1731 253.347 23.1731C253.347 23.1731 253.465 24.0637 253.826 25.5251C254.012 26.2673 254.383 27.078 254.716 27.8772C253.269 29.2588 252.36 30.8572 252.048 31.9076C251.471 33.8486 251.921 34.7277 252.771 34.9333C253.152 35.0246 253.699 34.8191 254.11 34.6136C254.618 34.4195 255.233 34.0882 255.8 33.5974C256.778 32.7525 257.716 31.5765 257.667 29.9895C257.638 29.2588 257.472 28.5394 257.247 27.8544C258.478 27.2607 260.071 26.9182 262.094 27.2036C266.443 27.7973 267.303 30.9714 267.137 32.2958C266.971 33.6203 266.062 34.351 265.759 34.5793C265.456 34.7962 265.358 34.8763 265.388 35.036C265.427 35.2759 265.563 35.2644 265.827 35.2188C266.189 35.1502 268.114 34.1341 268.192 31.6909C268.31 28.5506 265.759 25.1254 261.234 25.1595ZM227.694 38.3696C226.257 40.2078 224.234 40.9043 223.374 40.3105C222.446 39.6826 222.807 36.9766 224.576 35.0242C225.651 33.8368 227.049 32.7407 227.967 32.0671C228.173 31.9187 228.485 31.7019 228.857 31.4392C228.915 31.3936 228.954 31.3706 228.954 31.3706C229.023 31.325 229.101 31.2679 229.179 31.2108C229.834 33.9967 229.208 36.44 227.694 38.3696ZM238.199 30.0234C237.701 31.4506 236.646 35.1156 236.01 34.9101C235.463 34.7388 235.131 31.9644 235.903 29.2242C236.294 27.8425 237.124 26.1985 237.613 25.559C238.405 24.5315 239.265 24.1889 239.48 24.6114C239.734 25.1595 238.512 29.1328 238.199 30.0234ZM246.868 34.8644C246.653 34.9901 246.458 35.0813 246.37 35.0129C246.301 34.9673 246.457 34.796 246.457 34.796C246.457 34.796 247.542 33.4373 247.972 32.8094C248.217 32.4441 248.51 32.0217 248.822 31.542V31.679C248.823 33.323 247.474 34.4191 246.868 34.8644ZM253.553 33.0833C253.396 32.9463 253.416 32.5238 253.943 31.1994C254.149 30.6742 254.618 29.795 255.429 28.9616C255.527 29.3041 255.585 29.6351 255.576 29.9435C255.566 31.9986 254.315 32.7636 253.553 33.0833Z" fill="#CFA55B"/>
<path d="M257.637 119.469L238.441 100.167C238.178 99.9023 237.866 99.6926 237.522 99.5494C237.179 99.4063 236.81 99.3326 236.439 99.3326C236.067 99.3326 235.699 99.4063 235.355 99.5494C235.012 99.6926 234.699 99.9023 234.437 100.167L230.451 104.176L235.507 109.26C236.101 109.057 236.74 109.025 237.352 109.168C237.963 109.311 238.523 109.624 238.966 110.071C239.413 110.52 239.724 111.086 239.865 111.705C240.007 112.324 239.972 112.971 239.765 113.571L244.638 118.471C245.817 118.063 247.177 118.327 248.119 119.275C248.432 119.59 248.68 119.963 248.849 120.374C249.019 120.786 249.106 121.226 249.106 121.671C249.106 122.116 249.019 122.557 248.849 122.968C248.68 123.379 248.432 123.752 248.119 124.067C247.568 124.621 246.844 124.966 246.068 125.043C245.293 125.121 244.515 124.926 243.867 124.491C243.219 124.057 242.74 123.41 242.513 122.66C242.286 121.911 242.324 121.106 242.62 120.381L238.076 115.812L238.076 127.838C238.405 128.002 238.706 128.218 238.966 128.479C239.279 128.793 239.528 129.167 239.697 129.578C239.866 129.989 239.954 130.43 239.954 130.875C239.954 131.32 239.866 131.76 239.697 132.171C239.528 132.583 239.279 132.956 238.966 133.271C237.65 134.594 235.517 134.594 234.202 133.271C233.81 132.876 233.52 132.39 233.359 131.856C233.198 131.321 233.171 130.755 233.28 130.208C233.389 129.661 233.631 129.149 233.985 128.718C234.338 128.288 234.791 127.952 235.305 127.74V115.601C234.892 115.431 234.517 115.18 234.202 114.862C233.205 113.86 232.965 112.389 233.476 111.158L228.492 106.145L215.33 119.38C215.067 119.644 214.859 119.958 214.716 120.304C214.574 120.649 214.501 121.02 214.501 121.394C214.501 121.768 214.574 122.138 214.716 122.484C214.859 122.829 215.067 123.143 215.33 123.408L234.526 142.71C235.057 143.244 235.777 143.544 236.528 143.544C237.279 143.544 237.999 143.244 238.53 142.71L257.637 123.498C258.168 122.963 258.466 122.239 258.466 121.483C258.466 120.728 258.168 120.004 257.637 119.469Z" fill="#CFA55B"/>
<defs>
<clipPath id="clip0_160_62">
<rect width="27.615" height="43.8752" fill="white" transform="translate(32.7817 99.1896)"/>
</clipPath>
</defs>
</svg>
