<svg width="1440" height="1117" viewBox="0 0 1440 1117" fill="none" xmlns="http://www.w3.org/2000/svg">
<g filter="url(#filter0_f_151_117)">
<path d="M-44.1485 326.377C-55.6046 329.852 -66.3217 334.253 -78.3446 334.726C-82.7713 325.809 -86.8165 317.357 -93.2362 309.332C-97.5783 303.905 -95.4498 293.191 -99.8591 288.782C-105.874 282.767 -110.165 284.586 -112.131 274.757C-114.689 261.965 -123.809 245.789 -122.942 232.779C-120.1 190.143 -100.313 153.49 -75.7049 119.312C-49.4272 82.8152 -7.42847 59.6037 34.5477 46.557C55.5253 40.037 70.0237 34.0727 85.2912 17.5329C108.792 -7.92662 126.738 -38.8368 146.066 -67.3967C164.506 -94.6429 182.477 -120.246 195.641 -150.476C199.632 -159.639 204.574 -161.204 214.926 -161.384C247.612 -161.953 281.674 -163.536 313.88 -157.488C352.911 -150.159 390.702 -136.601 429.003 -126.321C487.446 -110.636 545.807 -96.6291 606.069 -89.8952C696.127 -79.8319 808.942 40.2237 898.758 29.866C999.63 18.2333 1078.22 -122.665 1178.95 -135.477C1286.34 -149.135 976.791 367.966 1084.76 360.366C1162.57 354.889 1478.5 -29.7177 1556 -19C1556 -8.02625 1392.81 406.012 1396.83 415.397C1400.62 424.242 1402.92 441.018 1409.2 447.927C1423.24 463.368 1421.47 491.632 1421.47 510.845V562.465C1421.47 583.496 1422.85 604.704 1418.35 625.383C1414.73 642.048 1029.47 415.397 1015.5 415.397C979.341 415.397 1113.39 708.366 1077.26 708.366C1070.76 712.698 1209.35 849.089 1201.76 851.366C1192.15 854.247 997.697 794.978 988.258 798.366C937.806 816.477 846.016 133.555 793 122C778.297 122 601.697 365.427 592.758 380.866C583.551 377.263 492.761 357.389 483.642 353.366C468.037 346.482 252.812 562.186 241.758 549.122C235.05 541.194 474.586 185.955 471 176.5C465.707 162.545 303.779 294.238 291.09 287.028C271.499 275.898 229.773 72.3737 209.5 73.5C200.855 73.9803 203.72 298.475 196.031 302.32C180.535 310.068 166.015 312.982 148.794 310.111C142.467 309.057 136.964 301.009 132.139 297.06C125.333 291.491 119.795 292.677 111.004 292.677C86.5997 292.677 61.8029 301.204 38.2488 307.092C25.5886 310.257 12.9761 312.564 0.0694504 315.468C-14.8183 318.818 -29.5251 321.94 -44.1485 326.377Z" fill="#2C2C2C" fill-opacity="0.53"/>
</g>
<defs>
<filter id="filter0_f_151_117" x="-388" y="-427" width="2209" height="1543.47" filterUnits="userSpaceOnUse" color-interpolation-filters="sRGB">
<feFlood flood-opacity="0" result="BackgroundImageFix"/>
<feBlend mode="normal" in="SourceGraphic" in2="BackgroundImageFix" result="shape"/>
<feGaussianBlur stdDeviation="132.5" result="effect1_foregroundBlur_151_117"/>
</filter>
</defs>
</svg>
