<svg width="1440" height="1128" viewBox="0 0 1440 1128" fill="none" xmlns="http://www.w3.org/2000/svg">
<g filter="url(#filter0_f_109_13)">
<path d="M-196.148 337.377C-207.605 340.852 -218.322 345.253 -230.345 345.726C-234.771 336.809 -238.817 328.357 -245.236 320.332C-249.578 314.905 -247.45 304.191 -251.859 299.782C-257.874 293.767 -262.165 295.586 -264.131 285.757C-266.689 272.965 -275.809 256.789 -274.942 243.779C-272.1 201.143 -252.313 164.49 -227.705 130.312C-201.427 93.8152 -159.428 70.6037 -117.452 57.557C-96.4747 51.037 -81.9763 45.0727 -66.7088 28.5329C-43.2077 3.07338 -25.2619 -27.8368 -5.9335 -56.3967C12.5059 -83.6429 30.4768 -109.246 43.6412 -139.476C47.6318 -148.639 52.5739 -150.204 62.9257 -150.384C95.6119 -150.953 129.674 -152.536 161.88 -146.488C200.911 -139.159 238.702 -125.601 277.003 -115.321C335.446 -99.6362 393.807 -85.6291 454.069 -78.8952C544.127 -68.8319 656.942 51.2237 746.758 40.866C847.63 29.2333 926.224 -111.665 1026.95 -124.477C1134.34 -138.135 824.791 378.966 932.758 371.366C1010.57 365.889 1509.29 -158.277 1586.79 -147.56C1623.97 -142.417 1661.43 -130.696 1695.97 -116.393C1709.93 -110.61 1723.27 -104.742 1736.39 -97.2057C1743.29 -93.2406 1752.03 -90.5738 1758.21 -85.5182C1771.57 -74.5861 1737.71 -55.8011 1732.4 -47.8258C1727.58 -40.5956 1720.58 -34.2504 1716.13 -26.6908C1709.31 -15.092 1700.74 -1.14153 1691.98 9.54062C1660.27 48.2051 1621.97 82.1333 1583.18 113.462C1536.36 151.279 1486.1 186.254 1436.41 220.209C1413.67 235.748 1392.18 253.492 1369.79 269.589L1368.34 270.627C1354.99 280.229 1342.78 289.002 1331.22 300.561C1317.75 314.035 1301.12 319.651 1285.64 329.974C1271.16 339.627 1256.63 356.559 1245.71 369.907C1237.73 379.653 1239.67 389.853 1239.67 401.853C1239.67 412.827 1240.81 417.012 1244.83 426.397C1248.62 435.242 1250.92 452.018 1257.2 458.927C1271.24 474.368 1269.47 502.632 1269.47 521.845V573.465C1269.47 594.496 1270.85 615.704 1266.35 636.383C1262.73 653.048 1012.72 436.866 998.758 436.866C962.599 436.866 1146.46 652.551 1110.33 652.551C1079.6 652.551 1047.82 650.25 1017.21 652.941C990.341 655.303 948.787 703.68 925.258 719.366C918.761 723.698 1057.35 860.089 1049.76 862.366C1040.15 865.247 845.697 805.978 836.258 809.366C785.806 827.477 784.08 713.193 731.064 701.639C705.792 696.131 683.847 690.64 672.042 666.576C669.369 661.126 669.572 657.102 668.049 651.772C666.869 647.643 658.623 641.885 655.874 638.526C645.704 626.096 639.58 616.649 636.687 600.736C635.348 593.369 636.59 584.662 636.59 577.166C636.59 572.023 632.81 565.026 631.136 560.122C625.228 542.822 618.996 525.58 611.364 508.989C605.952 497.222 602.792 484.248 597.047 472.757C594.919 468.501 587.91 469.996 583.606 468.472C569.85 463.6 554.771 462.789 540.557 459.706C526.799 456.723 514.42 452.694 500.235 452.694C485.532 452.694 449.697 376.427 440.758 391.866C431.551 388.263 340.761 368.389 331.642 364.366C316.037 357.482 100.812 573.186 89.7583 560.122C83.0504 552.194 169.947 338.066 166.361 328.611C161.067 314.656 151.779 305.238 139.09 298.028C119.499 286.898 92.3542 300.798 72.0809 301.924C63.4358 302.405 51.7195 309.475 44.0308 313.32C28.5351 321.068 14.0152 323.982 -3.20639 321.111C-9.53345 320.057 -15.0355 312.009 -19.8612 308.06C-26.6674 302.491 -32.2054 303.677 -40.9962 303.677C-65.4003 303.677 -90.1971 312.204 -113.751 318.092C-126.411 321.257 -139.024 323.564 -151.931 326.468C-166.818 329.818 -181.525 332.94 -196.148 337.377Z" fill="#2C2C2C"/>
</g>
<defs>
<filter id="filter0_f_109_13" x="-540" y="-416" width="2566.3" height="1543.47" filterUnits="userSpaceOnUse" color-interpolation-filters="sRGB">
<feFlood flood-opacity="0" result="BackgroundImageFix"/>
<feBlend mode="normal" in="SourceGraphic" in2="BackgroundImageFix" result="shape"/>
<feGaussianBlur stdDeviation="132.5" result="effect1_foregroundBlur_109_13"/>
</filter>
</defs>
</svg>
